<?xml version="1.0" encoding="UTF-8" standalone="no"?>
<!DOCTYPE svg PUBLIC "-//W3C//DTD SVG 1.1//EN"
 "http://www.w3.org/Graphics/SVG/1.1/DTD/svg11.dtd">
<!-- Generated by graphviz version 2.34.0 (20131002.2312)
 -->
<!-- Title: controllers_diagram Pages: 1 -->
<svg width="1262pt" height="859pt"
 viewBox="0.00 0.00 1261.96 859.00" xmlns="http://www.w3.org/2000/svg" xmlns:xlink="http://www.w3.org/1999/xlink">
<g id="graph0" class="graph" transform="scale(1 1) rotate(0) translate(4 855)">
<title>controllers_diagram</title>
<polygon fill="white" stroke="white" points="-4,4 -4,-855 1257.96,-855 1257.96,4 -4,4"/>
<!-- _diagram_info -->
<g id="node1" class="node"><title>_diagram_info</title>
<text text-anchor="start" x="8" y="-834" font-family="Times,serif" font-size="13.00">Controllers diagram</text>
<text text-anchor="start" x="8" y="-818.4" font-family="Times,serif" font-size="13.00">Date: Nov 28 2013 &#45; 20:48</text>
<text text-anchor="start" x="8" y="-802.8" font-family="Times,serif" font-size="13.00">Migration version: 20131125213657</text>
<text text-anchor="start" x="8" y="-787.2" font-family="Times,serif" font-size="13.00">Generated by RailRoady 1.1.1</text>
<text text-anchor="start" x="8" y="-771.6" font-family="Times,serif" font-size="13.00">http://railroady.prestonlee.com</text>
</g>
<!-- Admin::DashboardController -->
<g id="node2" class="node"><title>Admin::DashboardController</title>
<path fill="none" stroke="black" d="M63,-270.717C63,-270.717 241.635,-270.717 241.635,-270.717 247.635,-270.717 253.635,-276.717 253.635,-282.717 253.635,-282.717 253.635,-407.517 253.635,-407.517 253.635,-413.517 247.635,-419.517 241.635,-419.517 241.635,-419.517 63,-419.517 63,-419.517 57,-419.517 51,-413.517 51,-407.517 51,-407.517 51,-282.717 51,-282.717 51,-276.717 57,-270.717 63,-270.717"/>
<text text-anchor="middle" x="152.317" y="-401.517" font-family="Times,serif" font-size="14.00">Admin::DashboardController</text>
<polyline fill="none" stroke="black" points="51,-394.717 253.635,-394.717 "/>
<text text-anchor="start" x="59" y="-376.717" font-family="Times,serif" font-size="14.00">_callback_before_75</text>
<text text-anchor="start" x="59" y="-359.917" font-family="Times,serif" font-size="14.00">_one_time_conditions_valid_76?</text>
<text text-anchor="start" x="59" y="-343.117" font-family="Times,serif" font-size="14.00">grant_event</text>
<text text-anchor="start" x="59" y="-326.317" font-family="Times,serif" font-size="14.00">index</text>
<polyline fill="none" stroke="black" points="51,-319.517 253.635,-319.517 "/>
<polyline fill="none" stroke="black" points="51,-295.517 253.635,-295.517 "/>
<text text-anchor="start" x="59" y="-277.517" font-family="Times,serif" font-size="14.00">_layout</text>
</g>
<!-- ApplicationController -->
<g id="node3" class="node"><title>ApplicationController</title>
<path fill="none" stroke="black" d="M316.043,-280.184C316.043,-280.184 494.677,-280.184 494.677,-280.184 500.677,-280.184 506.677,-286.184 506.677,-292.184 506.677,-292.184 506.677,-400.184 506.677,-400.184 506.677,-406.184 500.677,-412.184 494.677,-412.184 494.677,-412.184 316.043,-412.184 316.043,-412.184 310.043,-412.184 304.043,-406.184 304.043,-400.184 304.043,-400.184 304.043,-292.184 304.043,-292.184 304.043,-286.184 310.043,-280.184 316.043,-280.184"/>
<text text-anchor="middle" x="405.36" y="-394.184" font-family="Times,serif" font-size="14.00">ApplicationController</text>
<polyline fill="none" stroke="black" points="304.043,-387.384 506.677,-387.384 "/>
<text text-anchor="start" x="312.043" y="-369.384" font-family="Times,serif" font-size="14.00">_one_time_conditions_valid_74?</text>
<text text-anchor="start" x="312.043" y="-352.584" font-family="Times,serif" font-size="14.00">after_sign_in_path_for</text>
<text text-anchor="start" x="312.043" y="-335.784" font-family="Times,serif" font-size="14.00">default_after_sign_in_path_for</text>
<polyline fill="none" stroke="black" points="304.043,-328.984 506.677,-328.984 "/>
<polyline fill="none" stroke="black" points="304.043,-304.984 506.677,-304.984 "/>
<text text-anchor="start" x="312.043" y="-286.984" font-family="Times,serif" font-size="14.00">_layout</text>
</g>
<!-- ApplicationController&#45;&gt;Admin::DashboardController -->
<g id="edge1" class="edge"><title>ApplicationController&#45;&gt;Admin::DashboardController</title>
<path fill="none" stroke="black" d="M303.896,-345.756C289.072,-345.694 273.77,-345.629 258.849,-345.566"/>
<polyline fill="none" stroke="black" points="253.804,-345.545 258.804,-345.566 "/>
</g>
<!-- CrowdfundController -->
<g id="node4" class="node"><title>CrowdfundController</title>
<path fill="none" stroke="black" d="M435.795,-39.8685C435.795,-39.8685 549.112,-39.8685 549.112,-39.8685 555.112,-39.8685 561.112,-45.8685 561.112,-51.8685 561.112,-51.8685 561.112,-126.268 561.112,-126.268 561.112,-132.268 555.112,-138.268 549.112,-138.268 549.112,-138.268 435.795,-138.268 435.795,-138.268 429.795,-138.268 423.795,-132.268 423.795,-126.268 423.795,-126.268 423.795,-51.8685 423.795,-51.8685 423.795,-45.8685 429.795,-39.8685 435.795,-39.8685"/>
<text text-anchor="middle" x="492.454" y="-120.268" font-family="Times,serif" font-size="14.00">CrowdfundController</text>
<polyline fill="none" stroke="black" points="423.795,-113.468 561.112,-113.468 "/>
<text text-anchor="start" x="431.795" y="-95.4685" font-family="Times,serif" font-size="14.00">create</text>
<polyline fill="none" stroke="black" points="423.795,-88.6685 561.112,-88.6685 "/>
<polyline fill="none" stroke="black" points="423.795,-64.6685 561.112,-64.6685 "/>
<text text-anchor="start" x="431.795" y="-46.6685" font-family="Times,serif" font-size="14.00">_layout</text>
</g>
<!-- ApplicationController&#45;&gt;CrowdfundController -->
<g id="edge2" class="edge"><title>ApplicationController&#45;&gt;CrowdfundController</title>
<path fill="none" stroke="black" d="M427.789,-279.97C442.173,-237.505 460.614,-183.066 474.119,-143.196"/>
<polyline fill="none" stroke="black" points="475.741,-138.408 474.137,-143.143 "/>
</g>
<!-- DraftGrantsController -->
<g id="node5" class="node"><title>DraftGrantsController</title>
<path fill="none" stroke="black" d="M316.783,-453.34C316.783,-453.34 502.417,-453.34 502.417,-453.34 508.417,-453.34 514.417,-459.34 514.417,-465.34 514.417,-465.34 514.417,-724.54 514.417,-724.54 514.417,-730.54 508.417,-736.54 502.417,-736.54 502.417,-736.54 316.783,-736.54 316.783,-736.54 310.783,-736.54 304.783,-730.54 304.783,-724.54 304.783,-724.54 304.783,-465.34 304.783,-465.34 304.783,-459.34 310.783,-453.34 316.783,-453.34"/>
<text text-anchor="middle" x="409.6" y="-718.54" font-family="Times,serif" font-size="14.00">DraftGrantsController</text>
<polyline fill="none" stroke="black" points="304.783,-711.74 514.417,-711.74 "/>
<text text-anchor="start" x="312.783" y="-693.74" font-family="Times,serif" font-size="14.00">_callback_before_141</text>
<text text-anchor="start" x="312.783" y="-676.94" font-family="Times,serif" font-size="14.00">_one_time_conditions_valid_142?</text>
<text text-anchor="start" x="312.783" y="-660.14" font-family="Times,serif" font-size="14.00">create</text>
<text text-anchor="start" x="312.783" y="-643.34" font-family="Times,serif" font-size="14.00">destroy</text>
<text text-anchor="start" x="312.783" y="-626.54" font-family="Times,serif" font-size="14.00">edit</text>
<text text-anchor="start" x="312.783" y="-609.74" font-family="Times,serif" font-size="14.00">edit_budget</text>
<text text-anchor="start" x="312.783" y="-592.94" font-family="Times,serif" font-size="14.00">edit_general_info</text>
<text text-anchor="start" x="312.783" y="-576.14" font-family="Times,serif" font-size="14.00">edit_logistics</text>
<text text-anchor="start" x="312.783" y="-559.34" font-family="Times,serif" font-size="14.00">edit_methods</text>
<text text-anchor="start" x="312.783" y="-542.54" font-family="Times,serif" font-size="14.00">new</text>
<text text-anchor="start" x="312.783" y="-525.74" font-family="Times,serif" font-size="14.00">submit</text>
<text text-anchor="start" x="312.783" y="-508.94" font-family="Times,serif" font-size="14.00">update</text>
<polyline fill="none" stroke="black" points="304.783,-502.14 514.417,-502.14 "/>
<polyline fill="none" stroke="black" points="304.783,-478.14 514.417,-478.14 "/>
<text text-anchor="start" x="312.783" y="-460.14" font-family="Times,serif" font-size="14.00">_layout</text>
</g>
<!-- ApplicationController&#45;&gt;DraftGrantsController -->
<g id="edge3" class="edge"><title>ApplicationController&#45;&gt;DraftGrantsController</title>
<path fill="none" stroke="black" d="M406.485,-412.193C406.676,-423.402 406.881,-435.429 407.091,-447.766"/>
<polyline fill="none" stroke="black" points="407.182,-453.07 407.097,-448.071 "/>
</g>
<!-- GrantsController -->
<g id="node6" class="node"><title>GrantsController</title>
<path fill="none" stroke="black" d="M570.248,-468.399C570.248,-468.399 755.883,-468.399 755.883,-468.399 761.883,-468.399 767.883,-474.399 767.883,-480.399 767.883,-480.399 767.883,-705.999 767.883,-705.999 767.883,-711.999 761.883,-717.999 755.883,-717.999 755.883,-717.999 570.248,-717.999 570.248,-717.999 564.248,-717.999 558.248,-711.999 558.248,-705.999 558.248,-705.999 558.248,-480.399 558.248,-480.399 558.248,-474.399 564.248,-468.399 570.248,-468.399"/>
<text text-anchor="middle" x="663.066" y="-699.999" font-family="Times,serif" font-size="14.00">GrantsController</text>
<polyline fill="none" stroke="black" points="558.248,-693.199 767.883,-693.199 "/>
<text text-anchor="start" x="566.248" y="-675.199" font-family="Times,serif" font-size="14.00">_callback_before_223</text>
<text text-anchor="start" x="566.248" y="-658.399" font-family="Times,serif" font-size="14.00">_one_time_conditions_valid_224?</text>
<text text-anchor="start" x="566.248" y="-641.599" font-family="Times,serif" font-size="14.00">create</text>
<text text-anchor="start" x="566.248" y="-624.799" font-family="Times,serif" font-size="14.00">destroy</text>
<text text-anchor="start" x="566.248" y="-607.999" font-family="Times,serif" font-size="14.00">edit</text>
<text text-anchor="start" x="566.248" y="-591.199" font-family="Times,serif" font-size="14.00">new</text>
<text text-anchor="start" x="566.248" y="-574.399" font-family="Times,serif" font-size="14.00">preapprove</text>
<text text-anchor="start" x="566.248" y="-557.599" font-family="Times,serif" font-size="14.00">rate</text>
<text text-anchor="start" x="566.248" y="-540.799" font-family="Times,serif" font-size="14.00">show</text>
<text text-anchor="start" x="566.248" y="-523.999" font-family="Times,serif" font-size="14.00">update</text>
<polyline fill="none" stroke="black" points="558.248,-517.199 767.883,-517.199 "/>
<polyline fill="none" stroke="black" points="558.248,-493.199 767.883,-493.199 "/>
<text text-anchor="start" x="566.248" y="-475.199" font-family="Times,serif" font-size="14.00">_layout</text>
</g>
<!-- ApplicationController&#45;&gt;GrantsController -->
<g id="edge4" class="edge"><title>ApplicationController&#45;&gt;GrantsController</title>
<path fill="none" stroke="black" d="M477.523,-412.413C490.918,-424.876 504.743,-437.852 517.617,-450.14 529.576,-461.553 542.008,-473.559 554.344,-485.564"/>
<polyline fill="none" stroke="black" points="558.169,-489.288 554.587,-485.8 "/>
</g>
<!-- PagesController -->
<g id="node7" class="node"><title>PagesController</title>
<path fill="none" stroke="black" d="M112.401,-520.732C112.401,-520.732 194.608,-520.732 194.608,-520.732 200.608,-520.732 206.608,-526.732 206.608,-532.732 206.608,-532.732 206.608,-657.532 206.608,-657.532 206.608,-663.532 200.608,-669.532 194.608,-669.532 194.608,-669.532 112.401,-669.532 112.401,-669.532 106.401,-669.532 100.401,-663.532 100.401,-657.532 100.401,-657.532 100.401,-532.732 100.401,-532.732 100.401,-526.732 106.401,-520.732 112.401,-520.732"/>
<text text-anchor="middle" x="153.504" y="-651.532" font-family="Times,serif" font-size="14.00">PagesController</text>
<polyline fill="none" stroke="black" points="100.401,-644.732 206.608,-644.732 "/>
<text text-anchor="start" x="108.401" y="-626.732" font-family="Times,serif" font-size="14.00">donors</text>
<text text-anchor="start" x="108.401" y="-609.932" font-family="Times,serif" font-size="14.00">home</text>
<text text-anchor="start" x="108.401" y="-593.132" font-family="Times,serif" font-size="14.00">recipients</text>
<text text-anchor="start" x="108.401" y="-576.332" font-family="Times,serif" font-size="14.00">search</text>
<polyline fill="none" stroke="black" points="100.401,-569.532 206.608,-569.532 "/>
<polyline fill="none" stroke="black" points="100.401,-545.532 206.608,-545.532 "/>
<text text-anchor="start" x="108.401" y="-527.532" font-family="Times,serif" font-size="14.00">_layout</text>
</g>
<!-- ApplicationController&#45;&gt;PagesController -->
<g id="edge5" class="edge"><title>ApplicationController&#45;&gt;PagesController</title>
<path fill="none" stroke="black" d="M338.528,-412.244C298.576,-451.735 248.359,-501.372 210.326,-538.966"/>
<polyline fill="none" stroke="black" points="206.684,-542.566 210.24,-539.051 "/>
</g>
<!-- PaymentsController -->
<g id="node8" class="node"><title>PaymentsController</title>
<path fill="none" stroke="black" d="M68.9812,-27.7252C68.9812,-27.7252 172.967,-27.7252 172.967,-27.7252 178.967,-27.7252 184.967,-33.7252 184.967,-39.7252 184.967,-39.7252 184.967,-130.925 184.967,-130.925 184.967,-136.925 178.967,-142.925 172.967,-142.925 172.967,-142.925 68.9812,-142.925 68.9812,-142.925 62.9812,-142.925 56.9812,-136.925 56.9812,-130.925 56.9812,-130.925 56.9812,-39.7252 56.9812,-39.7252 56.9812,-33.7252 62.9812,-27.7252 68.9812,-27.7252"/>
<text text-anchor="middle" x="120.974" y="-124.925" font-family="Times,serif" font-size="14.00">PaymentsController</text>
<polyline fill="none" stroke="black" points="56.9812,-118.125 184.967,-118.125 "/>
<text text-anchor="start" x="64.9812" y="-100.125" font-family="Times,serif" font-size="14.00">create</text>
<text text-anchor="start" x="64.9812" y="-83.3252" font-family="Times,serif" font-size="14.00">destroy</text>
<polyline fill="none" stroke="black" points="56.9812,-76.5252 184.967,-76.5252 "/>
<polyline fill="none" stroke="black" points="56.9812,-52.5252 184.967,-52.5252 "/>
<text text-anchor="start" x="64.9812" y="-34.5252" font-family="Times,serif" font-size="14.00">_layout</text>
</g>
<!-- ApplicationController&#45;&gt;PaymentsController -->
<g id="edge6" class="edge"><title>ApplicationController&#45;&gt;PaymentsController</title>
<path fill="none" stroke="black" d="M333.23,-280.021C288.504,-238.996 231.449,-186.661 187.759,-146.585"/>
<polyline fill="none" stroke="black" points="183.841,-142.991 187.525,-146.371 "/>
</g>
<!-- PreapprovedGrantsController -->
<g id="node9" class="node"><title>PreapprovedGrantsController</title>
<path fill="none" stroke="black" d="M581.144,-284.048C581.144,-284.048 738.765,-284.048 738.765,-284.048 744.765,-284.048 750.765,-290.048 750.765,-296.048 750.765,-296.048 750.765,-387.248 750.765,-387.248 750.765,-393.248 744.765,-399.248 738.765,-399.248 738.765,-399.248 581.144,-399.248 581.144,-399.248 575.144,-399.248 569.144,-393.248 569.144,-387.248 569.144,-387.248 569.144,-296.048 569.144,-296.048 569.144,-290.048 575.144,-284.048 581.144,-284.048"/>
<text text-anchor="middle" x="659.954" y="-381.248" font-family="Times,serif" font-size="14.00">PreapprovedGrantsController</text>
<polyline fill="none" stroke="black" points="569.144,-374.448 750.765,-374.448 "/>
<text text-anchor="start" x="577.144" y="-356.448" font-family="Times,serif" font-size="14.00">convert</text>
<text text-anchor="start" x="577.144" y="-339.648" font-family="Times,serif" font-size="14.00">show</text>
<polyline fill="none" stroke="black" points="569.144,-332.848 750.765,-332.848 "/>
<polyline fill="none" stroke="black" points="569.144,-308.848 750.765,-308.848 "/>
<text text-anchor="start" x="577.144" y="-290.848" font-family="Times,serif" font-size="14.00">_layout</text>
</g>
<!-- ApplicationController&#45;&gt;PreapprovedGrantsController -->
<g id="edge7" class="edge"><title>ApplicationController&#45;&gt;PreapprovedGrantsController</title>
<path fill="none" stroke="black" d="M506.714,-344.378C525.473,-344.044 545.017,-343.696 563.622,-343.365"/>
<polyline fill="none" stroke="black" points="568.843,-343.272 563.844,-343.361 "/>
</g>
<!-- Recipient::DashboardController -->
<g id="node10" class="node"><title>Recipient::DashboardController</title>
<path fill="none" stroke="black" d="M230.054,-39.6715C230.054,-39.6715 401.675,-39.6715 401.675,-39.6715 407.675,-39.6715 413.675,-45.6715 413.675,-51.6715 413.675,-51.6715 413.675,-126.072 413.675,-126.072 413.675,-132.072 407.675,-138.072 401.675,-138.072 401.675,-138.072 230.054,-138.072 230.054,-138.072 224.054,-138.072 218.054,-132.072 218.054,-126.072 218.054,-126.072 218.054,-51.6715 218.054,-51.6715 218.054,-45.6715 224.054,-39.6715 230.054,-39.6715"/>
<text text-anchor="middle" x="315.865" y="-120.072" font-family="Times,serif" font-size="14.00">Recipient::DashboardController</text>
<polyline fill="none" stroke="black" points="218.054,-113.272 413.675,-113.272 "/>
<text text-anchor="start" x="226.054" y="-95.2715" font-family="Times,serif" font-size="14.00">index</text>
<polyline fill="none" stroke="black" points="218.054,-88.4715 413.675,-88.4715 "/>
<polyline fill="none" stroke="black" points="218.054,-64.4715 413.675,-64.4715 "/>
<text text-anchor="start" x="226.054" y="-46.4715" font-family="Times,serif" font-size="14.00">_layout</text>
</g>
<!-- ApplicationController&#45;&gt;Recipient::DashboardController -->
<g id="edge8" class="edge"><title>ApplicationController&#45;&gt;Recipient::DashboardController</title>
<path fill="none" stroke="black" d="M382.313,-279.92C367.532,-237.422 348.583,-182.941 334.705,-143.04"/>
<polyline fill="none" stroke="black" points="333.038,-138.248 334.681,-142.971 "/>
</g>
<!-- UserController -->
<g id="node12" class="node"><title>UserController</title>
<path fill="none" stroke="black" d="M597.633,-0.5C597.633,-0.5 783.268,-0.5 783.268,-0.5 789.268,-0.5 795.268,-6.5 795.268,-12.5 795.268,-12.5 795.268,-154.1 795.268,-154.1 795.268,-160.1 789.268,-166.1 783.268,-166.1 783.268,-166.1 597.633,-166.1 597.633,-166.1 591.633,-166.1 585.633,-160.1 585.633,-154.1 585.633,-154.1 585.633,-12.5 585.633,-12.5 585.633,-6.5 591.633,-0.5 597.633,-0.5"/>
<text text-anchor="middle" x="690.451" y="-148.1" font-family="Times,serif" font-size="14.00">UserController</text>
<polyline fill="none" stroke="black" points="585.633,-141.3 795.268,-141.3 "/>
<text text-anchor="start" x="593.633" y="-123.3" font-family="Times,serif" font-size="14.00">_callback_before_281</text>
<text text-anchor="start" x="593.633" y="-106.5" font-family="Times,serif" font-size="14.00">_one_time_conditions_valid_282?</text>
<text text-anchor="start" x="593.633" y="-89.7" font-family="Times,serif" font-size="14.00">edit</text>
<text text-anchor="start" x="593.633" y="-72.9" font-family="Times,serif" font-size="14.00">show</text>
<text text-anchor="start" x="593.633" y="-56.1" font-family="Times,serif" font-size="14.00">update</text>
<polyline fill="none" stroke="black" points="585.633,-49.3 795.268,-49.3 "/>
<polyline fill="none" stroke="black" points="585.633,-25.3 795.268,-25.3 "/>
<text text-anchor="start" x="593.633" y="-7.3" font-family="Times,serif" font-size="14.00">_layout</text>
</g>
<!-- ApplicationController&#45;&gt;UserController -->
<g id="edge10" class="edge"><title>ApplicationController&#45;&gt;UserController</title>
<path fill="none" stroke="black" d="M477.3,-279.847C513.575,-246.399 558.01,-205.425 596.904,-169.56"/>
<polyline fill="none" stroke="black" points="600.65,-166.106 596.974,-169.496 "/>
</g>
<!-- RegistrationsController -->
<g id="node11" class="node"><title>RegistrationsController</title>
<path fill="none" stroke="black" d="M828,-255.5C828,-255.5 951.428,-255.5 951.428,-255.5 957.428,-255.5 963.428,-261.5 963.428,-267.5 963.428,-267.5 963.428,-392.3 963.428,-392.3 963.428,-398.3 957.428,-404.3 951.428,-404.3 951.428,-404.3 828,-404.3 828,-404.3 822,-404.3 816,-398.3 816,-392.3 816,-392.3 816,-267.5 816,-267.5 816,-261.5 822,-255.5 828,-255.5"/>
<text text-anchor="middle" x="889.714" y="-386.3" font-family="Times,serif" font-size="14.00">RegistrationsController</text>
<polyline fill="none" stroke="black" points="816,-379.5 963.428,-379.5 "/>
<text text-anchor="start" x="824" y="-361.5" font-family="Times,serif" font-size="14.00">after_sign_up_path_for</text>
<text text-anchor="start" x="824" y="-344.7" font-family="Times,serif" font-size="14.00">create</text>
<text text-anchor="start" x="824" y="-327.9" font-family="Times,serif" font-size="14.00">new</text>
<text text-anchor="start" x="824" y="-311.1" font-family="Times,serif" font-size="14.00">update</text>
<polyline fill="none" stroke="black" points="816,-304.3 963.428,-304.3 "/>
<polyline fill="none" stroke="black" points="816,-280.3 963.428,-280.3 "/>
<text text-anchor="start" x="824" y="-262.3" font-family="Times,serif" font-size="14.00">_layout</text>
</g>
<!-- Devise::RegistrationsController -->
<g id="node13" class="node"><title>Devise::RegistrationsController</title>
<ellipse fill="none" stroke="black" cx="1120.08" cy="-329.889" rx="133.75" ry="18"/>
<text text-anchor="middle" x="1120.08" y="-324.289" font-family="Times,serif" font-size="14.00">Devise::RegistrationsController</text>
</g>
<!-- Devise::RegistrationsController&#45;&gt;RegistrationsController -->
<g id="edge9" class="edge"><title>Devise::RegistrationsController&#45;&gt;RegistrationsController</title>
<path fill="none" stroke="black" d="M986.077,-329.895C980.242,-329.896 974.472,-329.896 968.832,-329.896"/>
<polyline fill="none" stroke="black" points="963.689,-329.896 968.689,-329.896 "/>
</g>
</g>
</svg>
