<?xml version="1.0" encoding="UTF-8" standalone="no"?>
<!DOCTYPE svg PUBLIC "-//W3C//DTD SVG 1.1//EN"
 "http://www.w3.org/Graphics/SVG/1.1/DTD/svg11.dtd">
<!-- Generated by graphviz version 2.34.0 (20131002.2312)
 -->
<!-- Title: controllers_diagram Pages: 1 -->
<svg width="740pt" height="374pt"
 viewBox="0.00 0.00 740.38 374.00" xmlns="http://www.w3.org/2000/svg" xmlns:xlink="http://www.w3.org/1999/xlink">
<g id="graph0" class="graph" transform="scale(1 1) rotate(0) translate(4 370)">
<title>controllers_diagram</title>
<polygon fill="white" stroke="white" points="-4,4 -4,-370 736.375,-370 736.375,4 -4,4"/>
<!-- _diagram_info -->
<g id="node1" class="node"><title>_diagram_info</title>
<text text-anchor="start" x="533" y="-349" font-family="Times,serif" font-size="13.00">Controllers diagram</text>
<text text-anchor="start" x="533" y="-333.4" font-family="Times,serif" font-size="13.00">Date: Oct 31 2013 &#45; 00:25</text>
<text text-anchor="start" x="533" y="-317.8" font-family="Times,serif" font-size="13.00">Migration version: 20131025091558</text>
<text text-anchor="start" x="533" y="-302.2" font-family="Times,serif" font-size="13.00">Generated by RailRoady 1.1.1</text>
<text text-anchor="start" x="533" y="-286.6" font-family="Times,serif" font-size="13.00">http://railroady.prestonlee.com</text>
</g>
<!-- Admin::DashboardController -->
<g id="node2" class="node"><title>Admin::DashboardController</title>
<ellipse fill="none" stroke="black" cx="124.756" cy="-51.2252" rx="124.512" ry="18"/>
<text text-anchor="middle" x="124.756" y="-45.6252" font-family="Times,serif" font-size="14.00">Admin::DashboardController</text>
</g>
<!-- ApplicationController -->
<g id="node3" class="node"><title>ApplicationController</title>
<ellipse fill="none" stroke="black" cx="374.018" cy="-125.238" rx="96.1448" ry="18"/>
<text text-anchor="middle" x="374.018" y="-119.638" font-family="Times,serif" font-size="14.00">ApplicationController</text>
</g>
<!-- ApplicationController&#45;&gt;Admin::DashboardController -->
<g id="edge1" class="edge"><title>ApplicationController&#45;&gt;Admin::DashboardController</title>
<path fill="none" stroke="black" d="M322.673,-109.992C282.465,-98.0534 226.474,-81.4283 184.303,-68.9064"/>
<polyline fill="none" stroke="black" points="179.49,-67.4774 184.283,-68.9007 "/>
</g>
<!-- DraftGrantsController -->
<g id="node4" class="node"><title>DraftGrantsController</title>
<ellipse fill="none" stroke="black" cx="556.546" cy="-29.142" rx="96.7009" ry="18"/>
<text text-anchor="middle" x="556.546" y="-23.542" font-family="Times,serif" font-size="14.00">DraftGrantsController</text>
</g>
<!-- ApplicationController&#45;&gt;DraftGrantsController -->
<g id="edge2" class="edge"><title>ApplicationController&#45;&gt;DraftGrantsController</title>
<path fill="none" stroke="black" d="M406.65,-108.058C438.316,-91.3865 486.314,-66.117 519.423,-48.6862"/>
<polyline fill="none" stroke="black" points="524.196,-46.1733 519.771,-48.5026 "/>
</g>
<!-- GrantsController -->
<g id="node5" class="node"><title>GrantsController</title>
<ellipse fill="none" stroke="black" cx="394.901" cy="-242.243" rx="76.451" ry="18"/>
<text text-anchor="middle" x="394.901" y="-236.643" font-family="Times,serif" font-size="14.00">GrantsController</text>
</g>
<!-- ApplicationController&#45;&gt;GrantsController -->
<g id="edge3" class="edge"><title>ApplicationController&#45;&gt;GrantsController</title>
<path fill="none" stroke="black" d="M377.235,-143.264C380.857,-163.56 386.755,-196.605 390.729,-218.869"/>
<polyline fill="none" stroke="black" points="391.646,-224.004 390.767,-219.082 "/>
</g>
<!-- PagesController -->
<g id="node6" class="node"><title>PagesController</title>
<ellipse fill="none" stroke="black" cx="586.743" cy="-204.193" rx="73.0201" ry="18"/>
<text text-anchor="middle" x="586.743" y="-198.593" font-family="Times,serif" font-size="14.00">PagesController</text>
</g>
<!-- ApplicationController&#45;&gt;PagesController -->
<g id="edge4" class="edge"><title>ApplicationController&#45;&gt;PagesController</title>
<path fill="none" stroke="black" d="M417.579,-141.406C453.642,-154.791 504.711,-173.746 541.286,-187.321"/>
<polyline fill="none" stroke="black" points="546.123,-189.116 541.435,-187.376 "/>
</g>
<!-- PaymentsController -->
<g id="node7" class="node"><title>PaymentsController</title>
<ellipse fill="none" stroke="black" cx="163.396" cy="-223.029" rx="88.0658" ry="18"/>
<text text-anchor="middle" x="163.396" y="-217.429" font-family="Times,serif" font-size="14.00">PaymentsController</text>
</g>
<!-- ApplicationController&#45;&gt;PaymentsController -->
<g id="edge5" class="edge"><title>ApplicationController&#45;&gt;PaymentsController</title>
<path fill="none" stroke="black" d="M337.81,-142.049C300.513,-159.366 242.511,-186.296 203.758,-204.289"/>
<polyline fill="none" stroke="black" points="199.13,-206.438 203.665,-204.332 "/>
</g>
<!-- Recipient::DashboardController -->
<g id="node8" class="node"><title>Recipient::DashboardController</title>
<ellipse fill="none" stroke="black" cx="316.743" cy="-18" rx="134.872" ry="18"/>
<text text-anchor="middle" x="316.743" y="-12.4" font-family="Times,serif" font-size="14.00">Recipient::DashboardController</text>
</g>
<!-- ApplicationController&#45;&gt;Recipient::DashboardController -->
<g id="edge6" class="edge"><title>ApplicationController&#45;&gt;Recipient::DashboardController</title>
<path fill="none" stroke="black" d="M364.302,-107.046C354.551,-88.7903 339.504,-60.6163 328.952,-40.8604"/>
<polyline fill="none" stroke="black" points="326.506,-36.2807 328.862,-40.6911 "/>
</g>
</g>
</svg>
