<?xml version="1.0" encoding="UTF-8" standalone="no"?>
<!DOCTYPE svg PUBLIC "-//W3C//DTD SVG 1.1//EN"
 "http://www.w3.org/Graphics/SVG/1.1/DTD/svg11.dtd">
<!-- Generated by graphviz version 2.34.0 (20131002.2312)
 -->
<!-- Title: controllers_diagram Pages: 1 -->
<svg width="917pt" height="737pt"
 viewBox="0.00 0.00 917.38 736.76" xmlns="http://www.w3.org/2000/svg" xmlns:xlink="http://www.w3.org/1999/xlink">
<g id="graph0" class="graph" transform="scale(1 1) rotate(0) translate(4 732.758)">
<title>controllers_diagram</title>
<polygon fill="white" stroke="white" points="-4,4 -4,-732.758 913.375,-732.758 913.375,4 -4,4"/>
<!-- _diagram_info -->
<g id="node1" class="node"><title>_diagram_info</title>
<text text-anchor="start" x="710" y="-69" font-family="Times,serif" font-size="13.00">Controllers diagram</text>
<text text-anchor="start" x="710" y="-53.4" font-family="Times,serif" font-size="13.00">Date: Oct 31 2013 &#45; 00:25</text>
<text text-anchor="start" x="710" y="-37.8" font-family="Times,serif" font-size="13.00">Migration version: 20131025091558</text>
<text text-anchor="start" x="710" y="-22.2" font-family="Times,serif" font-size="13.00">Generated by RailRoady 1.1.1</text>
<text text-anchor="start" x="710" y="-6.6" font-family="Times,serif" font-size="13.00">http://railroady.prestonlee.com</text>
</g>
<!-- Admin::DashboardController -->
<g id="node2" class="node"><title>Admin::DashboardController</title>
<path fill="none" stroke="black" d="M12,-288.838C12,-288.838 190.635,-288.838 190.635,-288.838 196.635,-288.838 202.635,-294.838 202.635,-300.838 202.635,-300.838 202.635,-425.638 202.635,-425.638 202.635,-431.638 196.635,-437.638 190.635,-437.638 190.635,-437.638 12,-437.638 12,-437.638 6,-437.638 0,-431.638 0,-425.638 0,-425.638 0,-300.838 0,-300.838 0,-294.838 6,-288.838 12,-288.838"/>
<text text-anchor="middle" x="101.317" y="-419.638" font-family="Times,serif" font-size="14.00">Admin::DashboardController</text>
<polyline fill="none" stroke="black" points="0,-412.838 202.635,-412.838 "/>
<text text-anchor="start" x="8" y="-394.838" font-family="Times,serif" font-size="14.00">_callback_before_53</text>
<text text-anchor="start" x="8" y="-378.038" font-family="Times,serif" font-size="14.00">_one_time_conditions_valid_54?</text>
<text text-anchor="start" x="8" y="-361.238" font-family="Times,serif" font-size="14.00">grant_event</text>
<text text-anchor="start" x="8" y="-344.438" font-family="Times,serif" font-size="14.00">index</text>
<polyline fill="none" stroke="black" points="0,-337.638 202.635,-337.638 "/>
<polyline fill="none" stroke="black" points="0,-313.638 202.635,-313.638 "/>
<text text-anchor="start" x="8" y="-295.638" font-family="Times,serif" font-size="14.00">_layout</text>
</g>
<!-- ApplicationController -->
<g id="node3" class="node"><title>ApplicationController</title>
<path fill="none" stroke="black" d="M241.035,-304.397C241.035,-304.397 419.67,-304.397 419.67,-304.397 425.67,-304.397 431.67,-310.397 431.67,-316.397 431.67,-316.397 431.67,-424.397 431.67,-424.397 431.67,-430.397 425.67,-436.397 419.67,-436.397 419.67,-436.397 241.035,-436.397 241.035,-436.397 235.035,-436.397 229.035,-430.397 229.035,-424.397 229.035,-424.397 229.035,-316.397 229.035,-316.397 229.035,-310.397 235.035,-304.397 241.035,-304.397"/>
<text text-anchor="middle" x="330.353" y="-418.397" font-family="Times,serif" font-size="14.00">ApplicationController</text>
<polyline fill="none" stroke="black" points="229.035,-411.597 431.67,-411.597 "/>
<text text-anchor="start" x="237.035" y="-393.597" font-family="Times,serif" font-size="14.00">_one_time_conditions_valid_52?</text>
<text text-anchor="start" x="237.035" y="-376.797" font-family="Times,serif" font-size="14.00">after_sign_in_path_for</text>
<text text-anchor="start" x="237.035" y="-359.997" font-family="Times,serif" font-size="14.00">default_after_sign_in_path_for</text>
<polyline fill="none" stroke="black" points="229.035,-353.197 431.67,-353.197 "/>
<polyline fill="none" stroke="black" points="229.035,-329.197 431.67,-329.197 "/>
<text text-anchor="start" x="237.035" y="-311.197" font-family="Times,serif" font-size="14.00">_layout</text>
</g>
<!-- ApplicationController&#45;&gt;Admin::DashboardController -->
<g id="edge1" class="edge"><title>ApplicationController&#45;&gt;Admin::DashboardController</title>
<path fill="none" stroke="black" d="M228.894,-367.225C222.029,-367.011 215.101,-366.794 208.209,-366.579"/>
<polyline fill="none" stroke="black" points="202.948,-366.414 207.945,-366.571 "/>
</g>
<!-- DraftGrantsController -->
<g id="node4" class="node"><title>DraftGrantsController</title>
<path fill="none" stroke="black" d="M409.648,-0.5C409.648,-0.5 588.282,-0.5 588.282,-0.5 594.282,-0.5 600.282,-6.5 600.282,-12.5 600.282,-12.5 600.282,-238.1 600.282,-238.1 600.282,-244.1 594.282,-250.1 588.282,-250.1 588.282,-250.1 409.648,-250.1 409.648,-250.1 403.648,-250.1 397.648,-244.1 397.648,-238.1 397.648,-238.1 397.648,-12.5 397.648,-12.5 397.648,-6.5 403.648,-0.5 409.648,-0.5"/>
<text text-anchor="middle" x="498.965" y="-232.1" font-family="Times,serif" font-size="14.00">DraftGrantsController</text>
<polyline fill="none" stroke="black" points="397.648,-225.3 600.282,-225.3 "/>
<text text-anchor="start" x="405.648" y="-207.3" font-family="Times,serif" font-size="14.00">_callback_before_93</text>
<text text-anchor="start" x="405.648" y="-190.5" font-family="Times,serif" font-size="14.00">_one_time_conditions_valid_94?</text>
<text text-anchor="start" x="405.648" y="-173.7" font-family="Times,serif" font-size="14.00">create</text>
<text text-anchor="start" x="405.648" y="-156.9" font-family="Times,serif" font-size="14.00">edit</text>
<text text-anchor="start" x="405.648" y="-140.1" font-family="Times,serif" font-size="14.00">edit_budget</text>
<text text-anchor="start" x="405.648" y="-123.3" font-family="Times,serif" font-size="14.00">edit_general_info</text>
<text text-anchor="start" x="405.648" y="-106.5" font-family="Times,serif" font-size="14.00">edit_logistics</text>
<text text-anchor="start" x="405.648" y="-89.7" font-family="Times,serif" font-size="14.00">edit_methods</text>
<text text-anchor="start" x="405.648" y="-72.9" font-family="Times,serif" font-size="14.00">new</text>
<text text-anchor="start" x="405.648" y="-56.1" font-family="Times,serif" font-size="14.00">update</text>
<polyline fill="none" stroke="black" points="397.648,-49.3 600.282,-49.3 "/>
<polyline fill="none" stroke="black" points="397.648,-25.3 600.282,-25.3 "/>
<text text-anchor="start" x="405.648" y="-7.3" font-family="Times,serif" font-size="14.00">_layout</text>
</g>
<!-- ApplicationController&#45;&gt;DraftGrantsController -->
<g id="edge2" class="edge"><title>ApplicationController&#45;&gt;DraftGrantsController</title>
<path fill="none" stroke="black" d="M375.76,-304.393C386.37,-288.969 398.033,-272.015 409.823,-254.877"/>
<polyline fill="none" stroke="black" points="412.823,-250.517 409.989,-254.636 "/>
</g>
<!-- GrantsController -->
<g id="node5" class="node"><title>GrantsController</title>
<path fill="none" stroke="black" d="M400.405,-512.258C400.405,-512.258 586.04,-512.258 586.04,-512.258 592.04,-512.258 598.04,-518.258 598.04,-524.258 598.04,-524.258 598.04,-716.258 598.04,-716.258 598.04,-722.258 592.04,-728.258 586.04,-728.258 586.04,-728.258 400.405,-728.258 400.405,-728.258 394.405,-728.258 388.405,-722.258 388.405,-716.258 388.405,-716.258 388.405,-524.258 388.405,-524.258 388.405,-518.258 394.405,-512.258 400.405,-512.258"/>
<text text-anchor="middle" x="493.223" y="-710.258" font-family="Times,serif" font-size="14.00">GrantsController</text>
<polyline fill="none" stroke="black" points="388.405,-703.458 598.04,-703.458 "/>
<text text-anchor="start" x="396.405" y="-685.458" font-family="Times,serif" font-size="14.00">_callback_before_103</text>
<text text-anchor="start" x="396.405" y="-668.658" font-family="Times,serif" font-size="14.00">_one_time_conditions_valid_104?</text>
<text text-anchor="start" x="396.405" y="-651.858" font-family="Times,serif" font-size="14.00">create</text>
<text text-anchor="start" x="396.405" y="-635.058" font-family="Times,serif" font-size="14.00">destroy</text>
<text text-anchor="start" x="396.405" y="-618.258" font-family="Times,serif" font-size="14.00">edit</text>
<text text-anchor="start" x="396.405" y="-601.458" font-family="Times,serif" font-size="14.00">new</text>
<text text-anchor="start" x="396.405" y="-584.658" font-family="Times,serif" font-size="14.00">show</text>
<text text-anchor="start" x="396.405" y="-567.858" font-family="Times,serif" font-size="14.00">update</text>
<polyline fill="none" stroke="black" points="388.405,-561.058 598.04,-561.058 "/>
<polyline fill="none" stroke="black" points="388.405,-537.058 598.04,-537.058 "/>
<text text-anchor="start" x="396.405" y="-519.058" font-family="Times,serif" font-size="14.00">_layout</text>
</g>
<!-- ApplicationController&#45;&gt;GrantsController -->
<g id="edge3" class="edge"><title>ApplicationController&#45;&gt;GrantsController</title>
<path fill="none" stroke="black" d="M373.571,-436.699C387.825,-458.566 404.099,-483.532 419.956,-507.858"/>
<polyline fill="none" stroke="black" points="422.703,-512.073 419.973,-507.884 "/>
</g>
<!-- PagesController -->
<g id="node6" class="node"><title>PagesController</title>
<path fill="none" stroke="black" d="M518.179,-319.494C518.179,-319.494 600.386,-319.494 600.386,-319.494 606.386,-319.494 612.386,-325.494 612.386,-331.494 612.386,-331.494 612.386,-422.694 612.386,-422.694 612.386,-428.694 606.386,-434.694 600.386,-434.694 600.386,-434.694 518.179,-434.694 518.179,-434.694 512.179,-434.694 506.179,-428.694 506.179,-422.694 506.179,-422.694 506.179,-331.494 506.179,-331.494 506.179,-325.494 512.179,-319.494 518.179,-319.494"/>
<text text-anchor="middle" x="559.282" y="-416.694" font-family="Times,serif" font-size="14.00">PagesController</text>
<polyline fill="none" stroke="black" points="506.179,-409.894 612.386,-409.894 "/>
<text text-anchor="start" x="514.179" y="-391.894" font-family="Times,serif" font-size="14.00">home</text>
<text text-anchor="start" x="514.179" y="-375.094" font-family="Times,serif" font-size="14.00">search</text>
<polyline fill="none" stroke="black" points="506.179,-368.294 612.386,-368.294 "/>
<polyline fill="none" stroke="black" points="506.179,-344.294 612.386,-344.294 "/>
<text text-anchor="start" x="514.179" y="-326.294" font-family="Times,serif" font-size="14.00">_layout</text>
</g>
<!-- ApplicationController&#45;&gt;PagesController -->
<g id="edge4" class="edge"><title>ApplicationController&#45;&gt;PagesController</title>
<path fill="none" stroke="black" d="M431.764,-373.363C455.459,-374.057 479.909,-374.772 500.983,-375.388"/>
<polyline fill="none" stroke="black" points="505.984,-375.535 500.986,-375.388 "/>
</g>
<!-- PaymentsController -->
<g id="node7" class="node"><title>PaymentsController</title>
<path fill="none" stroke="black" d="M109.49,-557.637C109.49,-557.637 213.476,-557.637 213.476,-557.637 219.476,-557.637 225.476,-563.637 225.476,-569.637 225.476,-569.637 225.476,-660.837 225.476,-660.837 225.476,-666.837 219.476,-672.837 213.476,-672.837 213.476,-672.837 109.49,-672.837 109.49,-672.837 103.49,-672.837 97.4902,-666.837 97.4902,-660.837 97.4902,-660.837 97.4902,-569.637 97.4902,-569.637 97.4902,-563.637 103.49,-557.637 109.49,-557.637"/>
<text text-anchor="middle" x="161.483" y="-654.837" font-family="Times,serif" font-size="14.00">PaymentsController</text>
<polyline fill="none" stroke="black" points="97.4902,-648.037 225.476,-648.037 "/>
<text text-anchor="start" x="105.49" y="-630.037" font-family="Times,serif" font-size="14.00">create</text>
<text text-anchor="start" x="105.49" y="-613.237" font-family="Times,serif" font-size="14.00">destroy</text>
<polyline fill="none" stroke="black" points="97.4902,-606.437 225.476,-606.437 "/>
<polyline fill="none" stroke="black" points="97.4902,-582.437 225.476,-582.437 "/>
<text text-anchor="start" x="105.49" y="-564.437" font-family="Times,serif" font-size="14.00">_layout</text>
</g>
<!-- ApplicationController&#45;&gt;PaymentsController -->
<g id="edge5" class="edge"><title>ApplicationController&#45;&gt;PaymentsController</title>
<path fill="none" stroke="black" d="M284.654,-436.654C259.687,-472.854 228.95,-517.419 204.427,-552.974"/>
<polyline fill="none" stroke="black" points="201.468,-557.264 204.307,-553.148 "/>
</g>
<!-- Recipient::DashboardController -->
<g id="node8" class="node"><title>Recipient::DashboardController</title>
<path fill="none" stroke="black" d="M81.5435,-71.1061C81.5435,-71.1061 253.165,-71.1061 253.165,-71.1061 259.165,-71.1061 265.165,-77.1061 265.165,-83.1061 265.165,-83.1061 265.165,-157.506 265.165,-157.506 265.165,-163.506 259.165,-169.506 253.165,-169.506 253.165,-169.506 81.5435,-169.506 81.5435,-169.506 75.5435,-169.506 69.5435,-163.506 69.5435,-157.506 69.5435,-157.506 69.5435,-83.1061 69.5435,-83.1061 69.5435,-77.1061 75.5435,-71.1061 81.5435,-71.1061"/>
<text text-anchor="middle" x="167.354" y="-151.506" font-family="Times,serif" font-size="14.00">Recipient::DashboardController</text>
<polyline fill="none" stroke="black" points="69.5435,-144.706 265.165,-144.706 "/>
<text text-anchor="start" x="77.5435" y="-126.706" font-family="Times,serif" font-size="14.00">index</text>
<polyline fill="none" stroke="black" points="69.5435,-119.906 265.165,-119.906 "/>
<polyline fill="none" stroke="black" points="69.5435,-95.9061 265.165,-95.9061 "/>
<text text-anchor="start" x="77.5435" y="-77.9061" font-family="Times,serif" font-size="14.00">_layout</text>
</g>
<!-- ApplicationController&#45;&gt;Recipient::DashboardController -->
<g id="edge6" class="edge"><title>ApplicationController&#45;&gt;Recipient::DashboardController</title>
<path fill="none" stroke="black" d="M287.314,-304.361C260.848,-263.755 227.362,-212.376 202.499,-174.229"/>
<polyline fill="none" stroke="black" points="199.51,-169.644 202.24,-173.833 "/>
</g>
</g>
</svg>
