<?xml version="1.0" encoding="UTF-8" standalone="no"?>
<!DOCTYPE svg PUBLIC "-//W3C//DTD SVG 1.1//EN"
 "http://www.w3.org/Graphics/SVG/1.1/DTD/svg11.dtd">
<!-- Generated by graphviz version 2.34.0 (20131002.2312)
 -->
<!-- Title: controllers_diagram Pages: 1 -->
<svg width="1194pt" height="504pt"
 viewBox="0.00 0.00 1194.04 504.00" xmlns="http://www.w3.org/2000/svg" xmlns:xlink="http://www.w3.org/1999/xlink">
<g id="graph0" class="graph" transform="scale(1 1) rotate(0) translate(4 500)">
<title>controllers_diagram</title>
<polygon fill="white" stroke="white" points="-4,4 -4,-500 1190.04,-500 1190.04,4 -4,4"/>
<!-- _diagram_info -->
<g id="node1" class="node"><title>_diagram_info</title>
<text text-anchor="start" x="418" y="-479" font-family="Times,serif" font-size="13.00">Controllers diagram</text>
<text text-anchor="start" x="418" y="-463.4" font-family="Times,serif" font-size="13.00">Date: Nov 28 2013 &#45; 20:48</text>
<text text-anchor="start" x="418" y="-447.8" font-family="Times,serif" font-size="13.00">Migration version: 20131125213657</text>
<text text-anchor="start" x="418" y="-432.2" font-family="Times,serif" font-size="13.00">Generated by RailRoady 1.1.1</text>
<text text-anchor="start" x="418" y="-416.6" font-family="Times,serif" font-size="13.00">http://railroady.prestonlee.com</text>
</g>
<!-- Admin::DashboardController -->
<g id="node2" class="node"><title>Admin::DashboardController</title>
<ellipse fill="none" stroke="black" cx="124.756" cy="-294.323" rx="124.512" ry="18"/>
<text text-anchor="middle" x="124.756" y="-288.723" font-family="Times,serif" font-size="14.00">Admin::DashboardController</text>
</g>
<!-- ApplicationController -->
<g id="node3" class="node"><title>ApplicationController</title>
<ellipse fill="none" stroke="black" cx="507.413" cy="-164.531" rx="96.1448" ry="18"/>
<text text-anchor="middle" x="507.413" y="-158.931" font-family="Times,serif" font-size="14.00">ApplicationController</text>
</g>
<!-- ApplicationController&#45;&gt;Admin::DashboardController -->
<g id="edge1" class="edge"><title>ApplicationController&#45;&gt;Admin::DashboardController</title>
<path fill="none" stroke="black" d="M460.874,-180.316C389.639,-204.478 253.916,-250.514 178.558,-276.074"/>
<polyline fill="none" stroke="black" points="173.683,-277.728 178.418,-276.122 "/>
</g>
<!-- CrowdfundController -->
<g id="node4" class="node"><title>CrowdfundController</title>
<ellipse fill="none" stroke="black" cx="607.809" cy="-18" rx="94.9386" ry="18"/>
<text text-anchor="middle" x="607.809" y="-12.4" font-family="Times,serif" font-size="14.00">CrowdfundController</text>
</g>
<!-- ApplicationController&#45;&gt;CrowdfundController -->
<g id="edge2" class="edge"><title>ApplicationController&#45;&gt;CrowdfundController</title>
<path fill="none" stroke="black" d="M519.724,-146.563C538.089,-119.758 572.631,-69.3439 592.566,-40.2474"/>
<polyline fill="none" stroke="black" points="595.398,-36.1145 592.572,-40.2393 "/>
</g>
<!-- DraftGrantsController -->
<g id="node5" class="node"><title>DraftGrantsController</title>
<ellipse fill="none" stroke="black" cx="511.174" cy="-342.083" rx="96.7009" ry="18"/>
<text text-anchor="middle" x="511.174" y="-336.483" font-family="Times,serif" font-size="14.00">DraftGrantsController</text>
</g>
<!-- ApplicationController&#45;&gt;DraftGrantsController -->
<g id="edge3" class="edge"><title>ApplicationController&#45;&gt;DraftGrantsController</title>
<path fill="none" stroke="black" d="M507.794,-182.533C508.481,-214.968 509.926,-283.171 510.685,-318.991"/>
<polyline fill="none" stroke="black" points="510.792,-324.033 510.686,-319.034 "/>
</g>
<!-- GrantsController -->
<g id="node6" class="node"><title>GrantsController</title>
<ellipse fill="none" stroke="black" cx="674.82" cy="-277.08" rx="76.451" ry="18"/>
<text text-anchor="middle" x="674.82" y="-271.48" font-family="Times,serif" font-size="14.00">GrantsController</text>
</g>
<!-- ApplicationController&#45;&gt;GrantsController -->
<g id="edge4" class="edge"><title>ApplicationController&#45;&gt;GrantsController</title>
<path fill="none" stroke="black" d="M533.57,-182.117C563.845,-202.471 613.587,-235.913 645.244,-257.196"/>
<polyline fill="none" stroke="black" points="649.395,-259.986 645.245,-257.197 "/>
</g>
<!-- PagesController -->
<g id="node7" class="node"><title>PagesController</title>
<ellipse fill="none" stroke="black" cx="338.223" cy="-283.707" rx="73.0201" ry="18"/>
<text text-anchor="middle" x="338.223" y="-278.107" font-family="Times,serif" font-size="14.00">PagesController</text>
</g>
<!-- ApplicationController&#45;&gt;PagesController -->
<g id="edge5" class="edge"><title>ApplicationController&#45;&gt;PagesController</title>
<path fill="none" stroke="black" d="M482.448,-182.116C451.571,-203.866 399.128,-240.806 366.708,-263.642"/>
<polyline fill="none" stroke="black" points="362.466,-266.63 366.554,-263.75 "/>
</g>
<!-- PaymentsController -->
<g id="node8" class="node"><title>PaymentsController</title>
<ellipse fill="none" stroke="black" cx="136.338" cy="-44.7216" rx="88.0658" ry="18"/>
<text text-anchor="middle" x="136.338" y="-39.1216" font-family="Times,serif" font-size="14.00">PaymentsController</text>
</g>
<!-- ApplicationController&#45;&gt;PaymentsController -->
<g id="edge6" class="edge"><title>ApplicationController&#45;&gt;PaymentsController</title>
<path fill="none" stroke="black" d="M458.902,-148.868C389.068,-126.321 260.721,-84.8812 188.77,-61.6502"/>
<polyline fill="none" stroke="black" points="183.688,-60.0096 188.447,-61.5459 "/>
</g>
<!-- PreapprovedGrantsController -->
<g id="node9" class="node"><title>PreapprovedGrantsController</title>
<ellipse fill="none" stroke="black" cx="876.383" cy="-291.171" rx="125.058" ry="18"/>
<text text-anchor="middle" x="876.383" y="-285.571" font-family="Times,serif" font-size="14.00">PreapprovedGrantsController</text>
</g>
<!-- ApplicationController&#45;&gt;PreapprovedGrantsController -->
<g id="edge7" class="edge"><title>ApplicationController&#45;&gt;PreapprovedGrantsController</title>
<path fill="none" stroke="black" d="M553.77,-180.442C622.287,-203.959 750.283,-247.89 822.754,-272.764"/>
<polyline fill="none" stroke="black" points="827.875,-274.521 823.145,-272.898 "/>
</g>
<!-- Recipient::DashboardController -->
<g id="node10" class="node"><title>Recipient::DashboardController</title>
<ellipse fill="none" stroke="black" cx="375.416" cy="-27.3076" rx="134.872" ry="18"/>
<text text-anchor="middle" x="375.416" y="-21.7076" font-family="Times,serif" font-size="14.00">Recipient::DashboardController</text>
</g>
<!-- ApplicationController&#45;&gt;Recipient::DashboardController -->
<g id="edge8" class="edge"><title>ApplicationController&#45;&gt;Recipient::DashboardController</title>
<path fill="none" stroke="black" d="M490.157,-146.591C466.045,-121.525 422.324,-76.0729 396.372,-49.0935"/>
<polyline fill="none" stroke="black" points="392.676,-45.2516 396.143,-48.8551 "/>
</g>
<!-- UserController -->
<g id="node12" class="node"><title>UserController</title>
<ellipse fill="none" stroke="black" cx="851.978" cy="-41.2666" rx="68.9281" ry="18"/>
<text text-anchor="middle" x="851.978" y="-35.6666" font-family="Times,serif" font-size="14.00">UserController</text>
</g>
<!-- ApplicationController&#45;&gt;UserController -->
<g id="edge10" class="edge"><title>ApplicationController&#45;&gt;UserController</title>
<path fill="none" stroke="black" d="M552.106,-148.543C617.769,-125.052 739.689,-81.4366 806.05,-57.6968"/>
<polyline fill="none" stroke="black" points="811.121,-55.8826 806.413,-57.5668 "/>
</g>
<!-- RegistrationsController -->
<g id="node11" class="node"><title>RegistrationsController</title>
<ellipse fill="none" stroke="black" cx="798.693" cy="-387" rx="101.886" ry="18"/>
<text text-anchor="middle" x="798.693" y="-381.4" font-family="Times,serif" font-size="14.00">RegistrationsController</text>
</g>
<!-- Devise::RegistrationsController -->
<g id="node13" class="node"><title>Devise::RegistrationsController</title>
<ellipse fill="none" stroke="black" cx="1052.17" cy="-387" rx="133.75" ry="18"/>
<text text-anchor="middle" x="1052.17" y="-381.4" font-family="Times,serif" font-size="14.00">Devise::RegistrationsController</text>
</g>
<!-- Devise::RegistrationsController&#45;&gt;RegistrationsController -->
<g id="edge9" class="edge"><title>Devise::RegistrationsController&#45;&gt;RegistrationsController</title>
<path fill="none" stroke="black" d="M918.009,-387C913.917,-387 909.836,-387 905.783,-387"/>
<polyline fill="none" stroke="black" points="900.664,-387 905.664,-387 "/>
</g>
</g>
</svg>
