<?xml version="1.0" encoding="UTF-8" standalone="no"?>
<!DOCTYPE svg PUBLIC "-//W3C//DTD SVG 1.1//EN"
 "http://www.w3.org/Graphics/SVG/1.1/DTD/svg11.dtd">
<!-- Generated by graphviz version 2.34.0 (20131002.2312)
 -->
<!-- Title: models_diagram Pages: 1 -->
<svg width="1078pt" height="530pt"
 viewBox="0.00 0.00 1078.00 530.00" xmlns="http://www.w3.org/2000/svg" xmlns:xlink="http://www.w3.org/1999/xlink">
<g id="graph0" class="graph" transform="scale(1 1) rotate(0) translate(4 526)">
<title>models_diagram</title>
<polygon fill="white" stroke="white" points="-4,4 -4,-526 1074,-526 1074,4 -4,4"/>
<!-- _diagram_info -->
<g id="node1" class="node"><title>_diagram_info</title>
<text text-anchor="start" x="7.55029" y="-505" font-family="Times,serif" font-size="13.00">Models diagram</text>
<text text-anchor="start" x="7.55029" y="-489.4" font-family="Times,serif" font-size="13.00">Date: Nov 28 2013 &#45; 20:48</text>
<text text-anchor="start" x="7.55029" y="-473.8" font-family="Times,serif" font-size="13.00">Migration version: 20131125213657</text>
<text text-anchor="start" x="7.55029" y="-458.2" font-family="Times,serif" font-size="13.00">Generated by RailRoady 1.1.1</text>
<text text-anchor="start" x="7.55029" y="-442.6" font-family="Times,serif" font-size="13.00">http://railroady.prestonlee.com</text>
</g>
<!-- Ability -->
<g id="node2" class="node"><title>Ability</title>
<polygon fill="none" stroke="black" points="288.255,-398 233.745,-398 233.745,-362 288.255,-362 288.255,-398"/>
<text text-anchor="middle" x="261" y="-374.4" font-family="Times,serif" font-size="14.00">Ability</text>
</g>
<!-- Admin -->
<g id="node3" class="node"><title>Admin</title>
<ellipse fill="none" stroke="black" cx="909" cy="-108" rx="37.2949" ry="18"/>
<text text-anchor="middle" x="909" y="-102.4" font-family="Times,serif" font-size="14.00">Admin</text>
</g>
<!-- AdminProfile -->
<g id="node4" class="node"><title>AdminProfile</title>
<ellipse fill="none" stroke="black" cx="1007" cy="-18" rx="63.425" ry="18"/>
<text text-anchor="middle" x="1007" y="-12.4" font-family="Times,serif" font-size="14.00">AdminProfile</text>
</g>
<!-- Admin&#45;&gt;AdminProfile -->
<g id="edge3" class="edge"><title>Admin&#45;&gt;AdminProfile</title>
<path fill="none" stroke="#cfcd03" d="M927.035,-84.5605C935.476,-74.6842 945.966,-63.2511 956.448,-54 962.208,-48.9165 968.725,-43.9251 975.117,-39.3757"/>
<ellipse fill="none" stroke="#cfcd03" cx="924.378" cy="-87.7245" rx="4.00002" ry="4.00002"/>
<ellipse fill="#cfcd03" stroke="#cfcd03" cx="978.677" cy="-36.9083" rx="4.00002" ry="4.00002"/>
<text text-anchor="middle" x="974.276" y="-57.4" font-family="Times,serif" font-size="14.00">profile</text>
</g>
<!-- Rate -->
<g id="node10" class="node"><title>Rate</title>
<ellipse fill="none" stroke="black" cx="831" cy="-18" rx="28.5985" ry="18"/>
<text text-anchor="middle" x="831" y="-12.4" font-family="Times,serif" font-size="14.00">Rate</text>
</g>
<!-- Admin&#45;&gt;Rate -->
<g id="edge2" class="edge"><title>Admin&#45;&gt;Rate</title>
<path fill="none" stroke="#a45161" d="M871.109,-94.2034C854.055,-87.6111 836.654,-79.419 831.793,-72 826.863,-64.4761 825.582,-54.9706 825.883,-46.0939"/>
<ellipse fill="none" stroke="#a45161" cx="875.127" cy="-95.7084" rx="4.00001" ry="4.00001"/>
<polygon fill="#a45161" stroke="#a45161" points="825.884,-46.073 831.317,-36.5475 826.361,-41.0957 826.838,-36.1185 826.838,-36.1185 826.838,-36.1185 826.361,-41.0957 822.358,-35.6895 825.884,-46.073 825.884,-46.073"/>
<text text-anchor="middle" x="869.104" y="-57.4" font-family="Times,serif" font-size="14.00">ratings_given</text>
</g>
<!-- Crowdfund -->
<g id="node5" class="node"><title>Crowdfund</title>
<ellipse fill="none" stroke="black" cx="400" cy="-108" rx="55.0384" ry="18"/>
<text text-anchor="middle" x="400" y="-102.4" font-family="Times,serif" font-size="14.00">Crowdfund</text>
</g>
<!-- Payment -->
<g id="node8" class="node"><title>Payment</title>
<ellipse fill="none" stroke="black" cx="400" cy="-18" rx="44.2488" ry="18"/>
<text text-anchor="middle" x="400" y="-12.4" font-family="Times,serif" font-size="14.00">Payment</text>
</g>
<!-- Crowdfund&#45;&gt;Payment -->
<g id="edge6" class="edge"><title>Crowdfund&#45;&gt;Payment</title>
<path fill="none" stroke="#f7bf49" d="M400,-81.4625C400,-70.3968 400,-57.4281 400,-46.184"/>
<ellipse fill="none" stroke="#f7bf49" cx="400" cy="-85.614" rx="4" ry="4"/>
<polygon fill="#f7bf49" stroke="#f7bf49" points="400,-46.0504 404.5,-36.0504 400,-41.0504 400,-36.0504 400,-36.0504 400,-36.0504 400,-41.0504 395.5,-36.0505 400,-46.0504 400,-46.0504"/>
</g>
<!-- DraftGrant -->
<g id="node6" class="node"><title>DraftGrant</title>
<ellipse fill="none" stroke="black" cx="512" cy="-198" rx="53.0988" ry="18"/>
<text text-anchor="middle" x="512" y="-192.4" font-family="Times,serif" font-size="14.00">DraftGrant</text>
</g>
<!-- PreapprovedGrant -->
<g id="node9" class="node"><title>PreapprovedGrant</title>
<ellipse fill="none" stroke="black" cx="555" cy="-108" rx="81.2423" ry="18"/>
<text text-anchor="middle" x="555" y="-102.4" font-family="Times,serif" font-size="14.00">PreapprovedGrant</text>
</g>
<!-- DraftGrant&#45;&gt;PreapprovedGrant -->
<g id="edge15" class="edge"><title>DraftGrant&#45;&gt;PreapprovedGrant</title>
<path fill="none" stroke="black" d="M520.291,-180.033C527.191,-165.911 537.056,-145.723 544.506,-130.476"/>
<polyline fill="none" stroke="black" points="546.735,-125.915 544.539,-130.408 "/>
</g>
<!-- Grant -->
<g id="node7" class="node"><title>Grant</title>
<ellipse fill="none" stroke="black" cx="616" cy="-198" rx="33.036" ry="18"/>
<text text-anchor="middle" x="616" y="-192.4" font-family="Times,serif" font-size="14.00">Grant</text>
</g>
<!-- Grant&#45;&gt;Admin -->
<g id="edge12" class="edge"><title>Grant&#45;&gt;Admin</title>
<path fill="none" stroke="#db7c93" d="M646.109,-178.867C666.532,-167.306 694.5,-152.881 720.8,-144 762.425,-129.944 774.806,-134.034 818,-126 833.278,-123.158 849.996,-120.038 864.887,-117.255"/>
<polygon fill="#db7c93" stroke="#db7c93" points="645.956,-178.955 635.044,-180.047 641.623,-181.451 637.29,-183.947 637.29,-183.947 637.29,-183.947 641.623,-181.451 639.536,-187.846 645.956,-178.955 645.956,-178.955"/>
<polygon fill="#db7c93" stroke="#db7c93" points="865.035,-117.228 875.691,-119.814 869.949,-116.309 874.864,-115.39 874.864,-115.39 874.864,-115.39 869.949,-116.309 874.037,-110.967 865.035,-117.228 865.035,-117.228"/>
<text text-anchor="middle" x="793.1" y="-147.4" font-family="Times,serif" font-size="14.00">raters_without_dimension</text>
</g>
<!-- Grant&#45;&gt;Crowdfund -->
<g id="edge9" class="edge"><title>Grant&#45;&gt;Crowdfund</title>
<path fill="none" stroke="#722eca" d="M583.245,-183.263C580.14,-182.106 577.023,-180.998 574,-180 543.691,-169.991 534.332,-173.286 504.476,-162 479.738,-152.649 453.176,-139.123 433.025,-128.077"/>
<ellipse fill="none" stroke="#722eca" cx="587.149" cy="-184.769" rx="4.00001" ry="4.00001"/>
<ellipse fill="#722eca" stroke="#722eca" cx="429.405" cy="-126.07" rx="4.00002" ry="4.00002"/>
<text text-anchor="middle" x="539.762" y="-147.4" font-family="Times,serif" font-size="14.00">crowdfunder</text>
</g>
<!-- Grant&#45;&gt;PreapprovedGrant -->
<g id="edge10" class="edge"><title>Grant&#45;&gt;PreapprovedGrant</title>
<path fill="none" stroke="#dce3dc" d="M600.243,-174.269C591.414,-161.531 580.414,-145.662 571.471,-132.761"/>
<ellipse fill="none" stroke="#dce3dc" cx="602.533" cy="-177.572" rx="4.00002" ry="4.00002"/>
<ellipse fill="#dce3dc" stroke="#dce3dc" cx="569.02" cy="-129.225" rx="4.00002" ry="4.00002"/>
</g>
<!-- Grant&#45;&gt;Rate -->
<g id="edge11" class="edge"><title>Grant&#45;&gt;Rate</title>
<path fill="none" stroke="#84958e" d="M634.724,-175.07C654.692,-152.373 687.868,-116.583 720.462,-90 746.094,-69.0945 778.158,-49.0901 801.141,-35.6745"/>
<ellipse fill="none" stroke="#84958e" cx="631.84" cy="-178.374" rx="4.00002" ry="4.00002"/>
<polygon fill="#84958e" stroke="#84958e" points="801.42,-35.514 812.331,-34.4181 805.751,-33.0168 810.083,-30.5195 810.083,-30.5195 810.083,-30.5195 805.751,-33.0168 807.836,-26.621 801.42,-35.514 801.42,-35.514"/>
<text text-anchor="middle" x="790.769" y="-102.4" font-family="Times,serif" font-size="14.00">rates_without_dimension</text>
</g>
<!-- Recipient -->
<g id="node11" class="node"><title>Recipient</title>
<ellipse fill="none" stroke="black" cx="698" cy="-306" rx="48.0634" ry="18"/>
<text text-anchor="middle" x="698" y="-300.4" font-family="Times,serif" font-size="14.00">Recipient</text>
</g>
<!-- Recipient&#45;&gt;DraftGrant -->
<g id="edge18" class="edge"><title>Recipient&#45;&gt;DraftGrant</title>
<path fill="none" stroke="#accec8" d="M665.134,-286.27C632.009,-267.392 581.064,-238.359 547.148,-219.03"/>
<ellipse fill="none" stroke="#accec8" cx="669.052" cy="-288.503" rx="4.00002" ry="4.00002"/>
<polygon fill="#accec8" stroke="#accec8" points="546.75,-218.804 540.29,-209.943 542.406,-216.328 538.062,-213.853 538.062,-213.853 538.062,-213.853 542.406,-216.328 535.834,-217.762 546.75,-218.804 546.75,-218.804"/>
</g>
<!-- Recipient&#45;&gt;Grant -->
<g id="edge17" class="edge"><title>Recipient&#45;&gt;Grant</title>
<path fill="none" stroke="#ee8f44" d="M680.135,-281.907C666.62,-264.436 648.12,-240.52 634.461,-222.864"/>
<ellipse fill="none" stroke="#ee8f44" cx="682.74" cy="-285.274" rx="4.00002" ry="4.00002"/>
<polygon fill="#ee8f44" stroke="#ee8f44" points="634.306,-222.664 631.747,-212.001 631.247,-218.71 628.188,-214.755 628.188,-214.755 628.188,-214.755 631.247,-218.71 624.628,-217.508 634.306,-222.664 634.306,-222.664"/>
</g>
<!-- RecipientProfile -->
<g id="node12" class="node"><title>RecipientProfile</title>
<ellipse fill="none" stroke="black" cx="741" cy="-198" rx="73.1975" ry="18"/>
<text text-anchor="middle" x="741" y="-192.4" font-family="Times,serif" font-size="14.00">RecipientProfile</text>
</g>
<!-- Recipient&#45;&gt;RecipientProfile -->
<g id="edge19" class="edge"><title>Recipient&#45;&gt;RecipientProfile</title>
<path fill="none" stroke="#ef4167" d="M706.067,-280.201C710.749,-266.435 716.986,-249.094 723.448,-234 724.973,-230.438 726.689,-226.727 728.435,-223.11"/>
<ellipse fill="none" stroke="#ef4167" cx="704.773" cy="-284.057" rx="4.00001" ry="4.00001"/>
<ellipse fill="#ef4167" stroke="#ef4167" cx="730.235" cy="-219.48" rx="4.00002" ry="4.00002"/>
<text text-anchor="middle" x="741.276" y="-246.4" font-family="Times,serif" font-size="14.00">profile</text>
</g>
<!-- School -->
<g id="node13" class="node"><title>School</title>
<ellipse fill="none" stroke="black" cx="556" cy="-306" rx="37.2949" ry="18"/>
<text text-anchor="middle" x="556" y="-300.4" font-family="Times,serif" font-size="14.00">School</text>
</g>
<!-- School&#45;&gt;DraftGrant -->
<g id="edge23" class="edge"><title>School&#45;&gt;DraftGrant</title>
<path fill="none" stroke="#b40f16" d="M545.844,-280.534C538.983,-264.004 529.931,-242.198 522.915,-225.296"/>
<ellipse fill="none" stroke="#b40f16" cx="547.397" cy="-284.275" rx="4.00002" ry="4.00002"/>
<polygon fill="#b40f16" stroke="#b40f16" points="522.886,-225.224 523.208,-214.263 520.969,-220.606 519.052,-215.988 519.052,-215.988 519.052,-215.988 520.969,-220.606 514.896,-217.714 522.886,-225.224 522.886,-225.224"/>
</g>
<!-- School&#45;&gt;Grant -->
<g id="edge22" class="edge"><title>School&#45;&gt;Grant</title>
<path fill="none" stroke="#b2e568" d="M569.324,-281.461C578.897,-264.549 591.789,-241.773 601.599,-224.442"/>
<ellipse fill="none" stroke="#b2e568" cx="567.345" cy="-284.956" rx="4.00002" ry="4.00002"/>
<polygon fill="#b2e568" stroke="#b2e568" points="601.765,-224.149 610.607,-217.663 604.228,-219.797 606.691,-215.446 606.691,-215.446 606.691,-215.446 604.228,-219.797 602.775,-213.229 601.765,-224.149 601.765,-224.149"/>
</g>
<!-- SuperUser -->
<g id="node14" class="node"><title>SuperUser</title>
<ellipse fill="none" stroke="black" cx="948" cy="-252" rx="51.2028" ry="18"/>
<text text-anchor="middle" x="948" y="-246.4" font-family="Times,serif" font-size="14.00">SuperUser</text>
</g>
<!-- SuperUser&#45;&gt;AdminProfile -->
<g id="edge25" class="edge"><title>SuperUser&#45;&gt;AdminProfile</title>
<path fill="none" stroke="#fc0f19" d="M954.355,-226.01C965.69,-181.441 989.266,-88.7334 1000.62,-44.0913"/>
<ellipse fill="none" stroke="#fc0f19" cx="953.324" cy="-230.064" rx="4.00001" ry="4.00001"/>
<ellipse fill="#fc0f19" stroke="#fc0f19" cx="1001.67" cy="-39.9611" rx="4.00001" ry="4.00001"/>
<text text-anchor="middle" x="993.276" y="-147.4" font-family="Times,serif" font-size="14.00">profile</text>
</g>
<!-- User -->
<g id="node15" class="node"><title>User</title>
<ellipse fill="none" stroke="black" cx="843" cy="-380" rx="28.9087" ry="18"/>
<text text-anchor="middle" x="843" y="-374.4" font-family="Times,serif" font-size="14.00">User</text>
</g>
<!-- User&#45;&gt;Admin -->
<g id="edge4" class="edge"><title>User&#45;&gt;Admin</title>
<path fill="none" stroke="black" d="M850.256,-362.464C852.615,-356.694 855.11,-350.129 857,-344 880.677,-267.224 898.122,-173.21 905.339,-131.162"/>
<polyline fill="none" stroke="black" points="906.209,-126.058 905.369,-130.987 "/>
</g>
<!-- User&#45;&gt;Payment -->
<g id="edge27" class="edge"><title>User&#45;&gt;Payment</title>
<path fill="none" stroke="#65157c" d="M843,-353.749C843,-339.938 843,-322.527 843,-307 843,-307 843,-307 843,-152 843,-123.751 849.547,-109.387 829,-90 775.849,-39.8486 557.735,-24.9453 454.565,-20.6596"/>
<ellipse fill="none" stroke="#65157c" cx="843" cy="-357.834" rx="4" ry="4"/>
<polygon fill="#65157c" stroke="#65157c" points="454.345,-20.651 444.531,-15.7582 449.349,-20.4528 444.353,-20.2546 444.353,-20.2546 444.353,-20.2546 449.349,-20.4528 444.175,-24.7511 454.345,-20.651 454.345,-20.651"/>
</g>
<!-- User&#45;&gt;Recipient -->
<g id="edge20" class="edge"><title>User&#45;&gt;Recipient</title>
<path fill="none" stroke="black" d="M820.978,-368.065C796.862,-356.09 757.955,-336.771 730.367,-323.072"/>
<polyline fill="none" stroke="black" points="725.698,-320.753 730.176,-322.977 "/>
</g>
<!-- User&#45;&gt;SuperUser -->
<g id="edge26" class="edge"><title>User&#45;&gt;SuperUser</title>
<path fill="none" stroke="black" d="M864.387,-367.622C874.486,-361.539 886.22,-353.37 895,-344 914.361,-323.338 929.694,-294.37 938.786,-274.708"/>
<polyline fill="none" stroke="black" points="940.962,-269.921 938.893,-274.473 "/>
</g>
<!-- Object -->
<g id="node16" class="node"><title>Object</title>
<ellipse fill="none" stroke="black" cx="261" cy="-479" rx="36.1697" ry="18"/>
<text text-anchor="middle" x="261" y="-473.4" font-family="Times,serif" font-size="14.00">Object</text>
</g>
<!-- Object&#45;&gt;Ability -->
<g id="edge1" class="edge"><title>Object&#45;&gt;Ability</title>
<path fill="none" stroke="black" d="M261,-460.658C261,-444.658 261,-420.811 261,-403.379"/>
<polyline fill="none" stroke="black" points="261,-398.192 261,-403.192 "/>
</g>
<!-- ActiveRecord::Base -->
<g id="node17" class="node"><title>ActiveRecord::Base</title>
<ellipse fill="none" stroke="black" cx="622" cy="-479" rx="88.2033" ry="18"/>
<text text-anchor="middle" x="622" y="-473.4" font-family="Times,serif" font-size="14.00">ActiveRecord::Base</text>
</g>
<!-- ActiveRecord::Base&#45;&gt;AdminProfile -->
<g id="edge5" class="edge"><title>ActiveRecord::Base&#45;&gt;AdminProfile</title>
<path fill="none" stroke="black" d="M709.219,-475.866C835.159,-470.377 1053,-450.795 1053,-381 1053,-381 1053,-381 1053,-107 1053,-81.7312 1037.92,-56.549 1025.03,-39.6384"/>
<polyline fill="none" stroke="black" points="1021.81,-35.5223 1024.89,-39.4605 "/>
</g>
<!-- ActiveRecord::Base&#45;&gt;Crowdfund -->
<g id="edge7" class="edge"><title>ActiveRecord::Base&#45;&gt;Crowdfund</title>
<path fill="none" stroke="black" d="M537.716,-473.424C476.37,-464.995 404,-442.101 404,-381 404,-381 404,-381 404,-197 404,-174.686 402.701,-149.222 401.583,-131.447"/>
<polyline fill="none" stroke="black" points="401.244,-126.189 401.566,-131.179 "/>
</g>
<!-- ActiveRecord::Base&#45;&gt;DraftGrant -->
<g id="edge8" class="edge"><title>ActiveRecord::Base&#45;&gt;DraftGrant</title>
<path fill="none" stroke="black" d="M603.842,-461.213C576.974,-434.995 527.786,-381.356 509,-324 497.709,-289.526 502.437,-246.794 507.082,-221.276"/>
<polyline fill="none" stroke="black" points="508.067,-216.101 507.132,-221.013 "/>
</g>
<!-- ActiveRecord::Base&#45;&gt;Grant -->
<g id="edge13" class="edge"><title>ActiveRecord::Base&#45;&gt;Grant</title>
<path fill="none" stroke="black" d="M621.634,-460.967C620.598,-412.812 617.649,-275.665 616.483,-221.45"/>
<polyline fill="none" stroke="black" points="616.369,-216.164 616.477,-221.163 "/>
</g>
<!-- ActiveRecord::Base&#45;&gt;Payment -->
<g id="edge14" class="edge"><title>ActiveRecord::Base&#45;&gt;Payment</title>
<path fill="none" stroke="black" d="M547.389,-469.289C457.094,-456.622 317,-429.202 317,-381 317,-381 317,-381 317,-107 317,-75.3669 345.734,-50.4936 369.389,-35.3765"/>
<polyline fill="none" stroke="black" points="373.738,-32.6679 369.494,-35.311 "/>
</g>
<!-- ActiveRecord::Base&#45;&gt;Rate -->
<g id="edge16" class="edge"><title>ActiveRecord::Base&#45;&gt;Rate</title>
<path fill="none" stroke="black" d="M707.275,-474.023C822.86,-466.261 1015,-443.898 1015,-381 1015,-381 1015,-381 1015,-197 1015,-130.1 1017.64,-98.8495 968,-54 952.765,-40.2357 898.948,-29.5158 863.473,-23.7384"/>
<polyline fill="none" stroke="black" points="858.379,-22.9221 863.316,-23.7133 "/>
</g>
<!-- ActiveRecord::Base&#45;&gt;RecipientProfile -->
<g id="edge21" class="edge"><title>ActiveRecord::Base&#45;&gt;RecipientProfile</title>
<path fill="none" stroke="black" d="M642.857,-461.454C673.533,-435.748 729.893,-382.998 755,-324 770.687,-287.137 769.86,-272.829 760,-234 758.85,-229.472 756.984,-224.897 754.86,-220.614"/>
<polyline fill="none" stroke="black" points="752.475,-216.098 754.81,-220.519 "/>
</g>
<!-- ActiveRecord::Base&#45;&gt;School -->
<g id="edge24" class="edge"><title>ActiveRecord::Base&#45;&gt;School</title>
<path fill="none" stroke="black" d="M615.43,-460.979C603.373,-429.738 577.728,-363.296 564.415,-328.802"/>
<polyline fill="none" stroke="black" points="562.543,-323.952 564.343,-328.617 "/>
</g>
<!-- ActiveRecord::Base&#45;&gt;User -->
<g id="edge28" class="edge"><title>ActiveRecord::Base&#45;&gt;User</title>
<path fill="none" stroke="black" d="M670.524,-463.934C704.339,-453.305 750.014,-437.272 788,-418 799.494,-412.168 811.459,-404.357 821.281,-397.415"/>
<polyline fill="none" stroke="black" points="825.352,-394.501 821.286,-397.411 "/>
</g>
</g>
</svg>
