<?xml version="1.0" encoding="UTF-8" standalone="no"?>
<!DOCTYPE svg PUBLIC "-//W3C//DTD SVG 1.1//EN"
 "http://www.w3.org/Graphics/SVG/1.1/DTD/svg11.dtd">
<!-- Generated by graphviz version 2.34.0 (20131002.2312)
 -->
<!-- Title: models_diagram Pages: 1 -->
<svg width="1155pt" height="1296pt"
 viewBox="0.00 0.00 1154.97 1296.00" xmlns="http://www.w3.org/2000/svg" xmlns:xlink="http://www.w3.org/1999/xlink">
<g id="graph0" class="graph" transform="scale(1 1) rotate(0) translate(4 1292)">
<title>models_diagram</title>
<polygon fill="white" stroke="white" points="-4,4 -4,-1292 1150.97,-1292 1150.97,4 -4,4"/>
<!-- _diagram_info -->
<g id="node1" class="node"><title>_diagram_info</title>
<text text-anchor="start" x="7.31226" y="-1271" font-family="Times,serif" font-size="13.00">Models diagram</text>
<text text-anchor="start" x="7.31226" y="-1255.4" font-family="Times,serif" font-size="13.00">Date: Oct 31 2013 &#45; 00:25</text>
<text text-anchor="start" x="7.31226" y="-1239.8" font-family="Times,serif" font-size="13.00">Migration version: 20131025091558</text>
<text text-anchor="start" x="7.31226" y="-1224.2" font-family="Times,serif" font-size="13.00">Generated by RailRoady 1.1.1</text>
<text text-anchor="start" x="7.31226" y="-1208.6" font-family="Times,serif" font-size="13.00">http://railroady.prestonlee.com</text>
</g>
<!-- Ability -->
<g id="node2" class="node"><title>Ability</title>
<polygon fill="none" stroke="black" points="233.166,-981.2 233.166,-1030.8 288.834,-1030.8 288.834,-981.2 233.166,-981.2"/>
<text text-anchor="middle" x="261" y="-1012.8" font-family="Times,serif" font-size="14.00">Ability</text>
<polyline fill="none" stroke="black" points="233.166,-1006 288.834,-1006 "/>
<text text-anchor="middle" x="261" y="-988" font-family="Times,serif" font-size="14.00"> </text>
</g>
<!-- Admin -->
<g id="node3" class="node"><title>Admin</title>
<path fill="none" stroke="black" d="M356.722,-490.8C356.722,-490.8 537.278,-490.8 537.278,-490.8 543.278,-490.8 549.278,-496.8 549.278,-502.8 549.278,-502.8 549.278,-797.2 549.278,-797.2 549.278,-803.2 543.278,-809.2 537.278,-809.2 537.278,-809.2 356.722,-809.2 356.722,-809.2 350.722,-809.2 344.722,-803.2 344.722,-797.2 344.722,-797.2 344.722,-502.8 344.722,-502.8 344.722,-496.8 350.722,-490.8 356.722,-490.8"/>
<text text-anchor="middle" x="447" y="-791.2" font-family="Times,serif" font-size="14.00">Admin</text>
<polyline fill="none" stroke="black" points="344.722,-784.4 549.278,-784.4 "/>
<text text-anchor="start" x="352.722" y="-766.4" font-family="Times,serif" font-size="14.00">id :integer</text>
<text text-anchor="start" x="352.722" y="-749.6" font-family="Times,serif" font-size="14.00">email :string</text>
<text text-anchor="start" x="352.722" y="-732.8" font-family="Times,serif" font-size="14.00">encrypted_password :string</text>
<text text-anchor="start" x="352.722" y="-716" font-family="Times,serif" font-size="14.00">reset_password_token :string</text>
<text text-anchor="start" x="352.722" y="-699.2" font-family="Times,serif" font-size="14.00">reset_password_sent_at :datetime</text>
<text text-anchor="start" x="352.722" y="-682.4" font-family="Times,serif" font-size="14.00">remember_created_at :datetime</text>
<text text-anchor="start" x="352.722" y="-665.6" font-family="Times,serif" font-size="14.00">sign_in_count :integer</text>
<text text-anchor="start" x="352.722" y="-648.8" font-family="Times,serif" font-size="14.00">current_sign_in_at :datetime</text>
<text text-anchor="start" x="352.722" y="-632" font-family="Times,serif" font-size="14.00">last_sign_in_at :datetime</text>
<text text-anchor="start" x="352.722" y="-615.2" font-family="Times,serif" font-size="14.00">current_sign_in_ip :string</text>
<text text-anchor="start" x="352.722" y="-598.4" font-family="Times,serif" font-size="14.00">last_sign_in_ip :string</text>
<text text-anchor="start" x="352.722" y="-581.6" font-family="Times,serif" font-size="14.00">created_at :datetime</text>
<text text-anchor="start" x="352.722" y="-564.8" font-family="Times,serif" font-size="14.00">updated_at :datetime</text>
<text text-anchor="start" x="352.722" y="-548" font-family="Times,serif" font-size="14.00">type :string</text>
<text text-anchor="start" x="352.722" y="-531.2" font-family="Times,serif" font-size="14.00">first_name :string</text>
<text text-anchor="start" x="352.722" y="-514.4" font-family="Times,serif" font-size="14.00">last_name :string</text>
<text text-anchor="start" x="352.722" y="-497.6" font-family="Times,serif" font-size="14.00">stripe_token :string</text>
</g>
<!-- Crowdfund -->
<g id="node4" class="node"><title>Crowdfund</title>
<path fill="none" stroke="black" d="M802.771,-939.2C802.771,-939.2 917.229,-939.2 917.229,-939.2 923.229,-939.2 929.229,-945.2 929.229,-951.2 929.229,-951.2 929.229,-1060.8 929.229,-1060.8 929.229,-1066.8 923.229,-1072.8 917.229,-1072.8 917.229,-1072.8 802.771,-1072.8 802.771,-1072.8 796.771,-1072.8 790.771,-1066.8 790.771,-1060.8 790.771,-1060.8 790.771,-951.2 790.771,-951.2 790.771,-945.2 796.771,-939.2 802.771,-939.2"/>
<text text-anchor="middle" x="860" y="-1054.8" font-family="Times,serif" font-size="14.00">Crowdfund</text>
<polyline fill="none" stroke="black" points="790.771,-1048 929.229,-1048 "/>
<text text-anchor="start" x="798.771" y="-1030" font-family="Times,serif" font-size="14.00">id :integer</text>
<text text-anchor="start" x="798.771" y="-1013.2" font-family="Times,serif" font-size="14.00">deadline :datetime</text>
<text text-anchor="start" x="798.771" y="-996.4" font-family="Times,serif" font-size="14.00">created_at :datetime</text>
<text text-anchor="start" x="798.771" y="-979.6" font-family="Times,serif" font-size="14.00">updated_at :datetime</text>
<text text-anchor="start" x="798.771" y="-962.8" font-family="Times,serif" font-size="14.00">goal :integer</text>
<text text-anchor="start" x="798.771" y="-946" font-family="Times,serif" font-size="14.00">pledged_total :integer</text>
</g>
<!-- Payment -->
<g id="node7" class="node"><title>Payment</title>
<path fill="none" stroke="black" d="M802.602,-574.8C802.602,-574.8 919.398,-574.8 919.398,-574.8 925.398,-574.8 931.398,-580.8 931.398,-586.8 931.398,-586.8 931.398,-713.2 931.398,-713.2 931.398,-719.2 925.398,-725.2 919.398,-725.2 919.398,-725.2 802.602,-725.2 802.602,-725.2 796.602,-725.2 790.602,-719.2 790.602,-713.2 790.602,-713.2 790.602,-586.8 790.602,-586.8 790.602,-580.8 796.602,-574.8 802.602,-574.8"/>
<text text-anchor="middle" x="861" y="-707.2" font-family="Times,serif" font-size="14.00">Payment</text>
<polyline fill="none" stroke="black" points="790.602,-700.4 931.398,-700.4 "/>
<text text-anchor="start" x="798.602" y="-682.4" font-family="Times,serif" font-size="14.00">id :integer</text>
<text text-anchor="start" x="798.602" y="-665.6" font-family="Times,serif" font-size="14.00">amount :integer</text>
<text text-anchor="start" x="798.602" y="-648.8" font-family="Times,serif" font-size="14.00">created_at :datetime</text>
<text text-anchor="start" x="798.602" y="-632" font-family="Times,serif" font-size="14.00">updated_at :datetime</text>
<text text-anchor="start" x="798.602" y="-615.2" font-family="Times,serif" font-size="14.00">user_id :integer</text>
<text text-anchor="start" x="798.602" y="-598.4" font-family="Times,serif" font-size="14.00">crowdfund_id :integer</text>
<text text-anchor="start" x="798.602" y="-581.6" font-family="Times,serif" font-size="14.00">charge_id :string</text>
</g>
<!-- Crowdfund&#45;&gt;Payment -->
<g id="edge3" class="edge"><title>Crowdfund&#45;&gt;Payment</title>
<path fill="none" stroke="#a82079" d="M860.21,-930.488C860.371,-873.489 860.594,-794.858 860.761,-735.514"/>
<ellipse fill="none" stroke="#a82079" cx="860.198" cy="-934.831" rx="4" ry="4"/>
<polygon fill="#a82079" stroke="#a82079" points="860.761,-735.416 865.29,-725.429 860.776,-730.416 860.79,-725.416 860.79,-725.416 860.79,-725.416 860.776,-730.416 856.29,-725.404 860.761,-735.416 860.761,-735.416"/>
</g>
<!-- DraftGrant -->
<g id="node5" class="node"><title>DraftGrant</title>
<path fill="none" stroke="black" d="M604.595,-9C604.595,-9 735.405,-9 735.405,-9 741.405,-9 747.405,-15 747.405,-21 747.405,-21 747.405,-433 747.405,-433 747.405,-439 741.405,-445 735.405,-445 735.405,-445 604.595,-445 604.595,-445 598.595,-445 592.595,-439 592.595,-433 592.595,-433 592.595,-21 592.595,-21 592.595,-15 598.595,-9 604.595,-9"/>
<text text-anchor="middle" x="670" y="-427" font-family="Times,serif" font-size="14.00">DraftGrant</text>
<polyline fill="none" stroke="black" points="592.595,-420.2 747.405,-420.2 "/>
<text text-anchor="start" x="600.595" y="-402.2" font-family="Times,serif" font-size="14.00">id :integer</text>
<text text-anchor="start" x="600.595" y="-385.4" font-family="Times,serif" font-size="14.00">recipient_id :integer</text>
<text text-anchor="start" x="600.595" y="-368.6" font-family="Times,serif" font-size="14.00">title :text</text>
<text text-anchor="start" x="600.595" y="-351.8" font-family="Times,serif" font-size="14.00">summary :text</text>
<text text-anchor="start" x="600.595" y="-335" font-family="Times,serif" font-size="14.00">subject_areas :text</text>
<text text-anchor="start" x="600.595" y="-318.2" font-family="Times,serif" font-size="14.00">grade_level :text</text>
<text text-anchor="start" x="600.595" y="-301.4" font-family="Times,serif" font-size="14.00">duration :text</text>
<text text-anchor="start" x="600.595" y="-284.6" font-family="Times,serif" font-size="14.00">num_classes :integer</text>
<text text-anchor="start" x="600.595" y="-267.8" font-family="Times,serif" font-size="14.00">num_students :integer</text>
<text text-anchor="start" x="600.595" y="-251" font-family="Times,serif" font-size="14.00">total_budget :integer</text>
<text text-anchor="start" x="600.595" y="-234.2" font-family="Times,serif" font-size="14.00">requested_funds :integer</text>
<text text-anchor="start" x="600.595" y="-217.4" font-family="Times,serif" font-size="14.00">funds_will_pay_for :text</text>
<text text-anchor="start" x="600.595" y="-200.6" font-family="Times,serif" font-size="14.00">budget_desc :text</text>
<text text-anchor="start" x="600.595" y="-183.8" font-family="Times,serif" font-size="14.00">purpose :text</text>
<text text-anchor="start" x="600.595" y="-167" font-family="Times,serif" font-size="14.00">methods :text</text>
<text text-anchor="start" x="600.595" y="-150.2" font-family="Times,serif" font-size="14.00">background :text</text>
<text text-anchor="start" x="600.595" y="-133.4" font-family="Times,serif" font-size="14.00">n_collaborators :integer</text>
<text text-anchor="start" x="600.595" y="-116.6" font-family="Times,serif" font-size="14.00">collaborators :text</text>
<text text-anchor="start" x="600.595" y="-99.8" font-family="Times,serif" font-size="14.00">comments :text</text>
<text text-anchor="start" x="600.595" y="-83" font-family="Times,serif" font-size="14.00">created_at :datetime</text>
<text text-anchor="start" x="600.595" y="-66.2" font-family="Times,serif" font-size="14.00">updated_at :datetime</text>
<text text-anchor="start" x="600.595" y="-49.4" font-family="Times,serif" font-size="14.00">video :string</text>
<text text-anchor="start" x="600.595" y="-32.6" font-family="Times,serif" font-size="14.00">image_url :string</text>
<text text-anchor="start" x="600.595" y="-15.8" font-family="Times,serif" font-size="14.00">school_id :string</text>
</g>
<!-- Grant -->
<g id="node6" class="node"><title>Grant</title>
<path fill="none" stroke="black" d="M969.595,-0.6C969.595,-0.6 1100.41,-0.6 1100.41,-0.6 1106.41,-0.6 1112.41,-6.6 1112.41,-12.6 1112.41,-12.6 1112.41,-441.4 1112.41,-441.4 1112.41,-447.4 1106.41,-453.4 1100.41,-453.4 1100.41,-453.4 969.595,-453.4 969.595,-453.4 963.595,-453.4 957.595,-447.4 957.595,-441.4 957.595,-441.4 957.595,-12.6 957.595,-12.6 957.595,-6.6 963.595,-0.6 969.595,-0.6"/>
<text text-anchor="middle" x="1035" y="-435.4" font-family="Times,serif" font-size="14.00">Grant</text>
<polyline fill="none" stroke="black" points="957.595,-428.6 1112.41,-428.6 "/>
<text text-anchor="start" x="965.595" y="-410.6" font-family="Times,serif" font-size="14.00">id :integer</text>
<text text-anchor="start" x="965.595" y="-393.8" font-family="Times,serif" font-size="14.00">created_at :datetime</text>
<text text-anchor="start" x="965.595" y="-377" font-family="Times,serif" font-size="14.00">updated_at :datetime</text>
<text text-anchor="start" x="965.595" y="-360.2" font-family="Times,serif" font-size="14.00">title :text</text>
<text text-anchor="start" x="965.595" y="-343.4" font-family="Times,serif" font-size="14.00">summary :text</text>
<text text-anchor="start" x="965.595" y="-326.6" font-family="Times,serif" font-size="14.00">subject_areas :text</text>
<text text-anchor="start" x="965.595" y="-309.8" font-family="Times,serif" font-size="14.00">grade_level :text</text>
<text text-anchor="start" x="965.595" y="-293" font-family="Times,serif" font-size="14.00">duration :text</text>
<text text-anchor="start" x="965.595" y="-276.2" font-family="Times,serif" font-size="14.00">num_classes :integer</text>
<text text-anchor="start" x="965.595" y="-259.4" font-family="Times,serif" font-size="14.00">num_students :integer</text>
<text text-anchor="start" x="965.595" y="-242.6" font-family="Times,serif" font-size="14.00">total_budget :integer</text>
<text text-anchor="start" x="965.595" y="-225.8" font-family="Times,serif" font-size="14.00">requested_funds :integer</text>
<text text-anchor="start" x="965.595" y="-209" font-family="Times,serif" font-size="14.00">funds_will_pay_for :text</text>
<text text-anchor="start" x="965.595" y="-192.2" font-family="Times,serif" font-size="14.00">budget_desc :text</text>
<text text-anchor="start" x="965.595" y="-175.4" font-family="Times,serif" font-size="14.00">purpose :text</text>
<text text-anchor="start" x="965.595" y="-158.6" font-family="Times,serif" font-size="14.00">methods :text</text>
<text text-anchor="start" x="965.595" y="-141.8" font-family="Times,serif" font-size="14.00">background :text</text>
<text text-anchor="start" x="965.595" y="-125" font-family="Times,serif" font-size="14.00">n_collaborators :integer</text>
<text text-anchor="start" x="965.595" y="-108.2" font-family="Times,serif" font-size="14.00">collaborators :text</text>
<text text-anchor="start" x="965.595" y="-91.4" font-family="Times,serif" font-size="14.00">comments :text</text>
<text text-anchor="start" x="965.595" y="-74.6" font-family="Times,serif" font-size="14.00">recipient_id :integer</text>
<text text-anchor="start" x="965.595" y="-57.8" font-family="Times,serif" font-size="14.00">state :string</text>
<text text-anchor="start" x="965.595" y="-41" font-family="Times,serif" font-size="14.00">video :string</text>
<text text-anchor="start" x="965.595" y="-24.2" font-family="Times,serif" font-size="14.00">image_url :string</text>
<text text-anchor="start" x="965.595" y="-7.4" font-family="Times,serif" font-size="14.00">school_id :string</text>
</g>
<!-- Recipient -->
<g id="node8" class="node"><title>Recipient</title>
<path fill="none" stroke="black" d="M579.722,-490.8C579.722,-490.8 760.278,-490.8 760.278,-490.8 766.278,-490.8 772.278,-496.8 772.278,-502.8 772.278,-502.8 772.278,-797.2 772.278,-797.2 772.278,-803.2 766.278,-809.2 760.278,-809.2 760.278,-809.2 579.722,-809.2 579.722,-809.2 573.722,-809.2 567.722,-803.2 567.722,-797.2 567.722,-797.2 567.722,-502.8 567.722,-502.8 567.722,-496.8 573.722,-490.8 579.722,-490.8"/>
<text text-anchor="middle" x="670" y="-791.2" font-family="Times,serif" font-size="14.00">Recipient</text>
<polyline fill="none" stroke="black" points="567.722,-784.4 772.278,-784.4 "/>
<text text-anchor="start" x="575.722" y="-766.4" font-family="Times,serif" font-size="14.00">id :integer</text>
<text text-anchor="start" x="575.722" y="-749.6" font-family="Times,serif" font-size="14.00">email :string</text>
<text text-anchor="start" x="575.722" y="-732.8" font-family="Times,serif" font-size="14.00">encrypted_password :string</text>
<text text-anchor="start" x="575.722" y="-716" font-family="Times,serif" font-size="14.00">reset_password_token :string</text>
<text text-anchor="start" x="575.722" y="-699.2" font-family="Times,serif" font-size="14.00">reset_password_sent_at :datetime</text>
<text text-anchor="start" x="575.722" y="-682.4" font-family="Times,serif" font-size="14.00">remember_created_at :datetime</text>
<text text-anchor="start" x="575.722" y="-665.6" font-family="Times,serif" font-size="14.00">sign_in_count :integer</text>
<text text-anchor="start" x="575.722" y="-648.8" font-family="Times,serif" font-size="14.00">current_sign_in_at :datetime</text>
<text text-anchor="start" x="575.722" y="-632" font-family="Times,serif" font-size="14.00">last_sign_in_at :datetime</text>
<text text-anchor="start" x="575.722" y="-615.2" font-family="Times,serif" font-size="14.00">current_sign_in_ip :string</text>
<text text-anchor="start" x="575.722" y="-598.4" font-family="Times,serif" font-size="14.00">last_sign_in_ip :string</text>
<text text-anchor="start" x="575.722" y="-581.6" font-family="Times,serif" font-size="14.00">created_at :datetime</text>
<text text-anchor="start" x="575.722" y="-564.8" font-family="Times,serif" font-size="14.00">updated_at :datetime</text>
<text text-anchor="start" x="575.722" y="-548" font-family="Times,serif" font-size="14.00">type :string</text>
<text text-anchor="start" x="575.722" y="-531.2" font-family="Times,serif" font-size="14.00">first_name :string</text>
<text text-anchor="start" x="575.722" y="-514.4" font-family="Times,serif" font-size="14.00">last_name :string</text>
<text text-anchor="start" x="575.722" y="-497.6" font-family="Times,serif" font-size="14.00">stripe_token :string</text>
</g>
<!-- Recipient&#45;&gt;DraftGrant -->
<g id="edge9" class="edge"><title>Recipient&#45;&gt;DraftGrant</title>
<path fill="none" stroke="#1833f6" d="M670,-482.658C670,-473.592 670,-464.412 670,-455.189"/>
<ellipse fill="none" stroke="#1833f6" cx="670" cy="-486.738" rx="4" ry="4"/>
<polygon fill="#1833f6" stroke="#1833f6" points="670,-455.167 674.5,-445.167 670,-450.167 670,-445.167 670,-445.167 670,-445.167 670,-450.167 665.5,-445.167 670,-455.167 670,-455.167"/>
</g>
<!-- Recipient&#45;&gt;Grant -->
<g id="edge8" class="edge"><title>Recipient&#45;&gt;Grant</title>
<path fill="none" stroke="#085a02" d="M777.459,-495.545C778.973,-493.679 780.487,-491.83 782,-490 834.512,-426.479 899.135,-359.723 949.925,-309.493"/>
<ellipse fill="none" stroke="#085a02" cx="774.817" cy="-498.834" rx="4.00002" ry="4.00002"/>
<polygon fill="#085a02" stroke="#085a02" points="950.196,-309.227 960.475,-305.408 953.756,-305.716 957.316,-302.204 957.316,-302.204 957.316,-302.204 953.756,-305.716 954.156,-299.001 950.196,-309.227 950.196,-309.227"/>
</g>
<!-- School -->
<g id="node9" class="node"><title>School</title>
<path fill="none" stroke="black" d="M961.446,-591.6C961.446,-591.6 1108.55,-591.6 1108.55,-591.6 1114.55,-591.6 1120.55,-597.6 1120.55,-603.6 1120.55,-603.6 1120.55,-696.4 1120.55,-696.4 1120.55,-702.4 1114.55,-708.4 1108.55,-708.4 1108.55,-708.4 961.446,-708.4 961.446,-708.4 955.446,-708.4 949.446,-702.4 949.446,-696.4 949.446,-696.4 949.446,-603.6 949.446,-603.6 949.446,-597.6 955.446,-591.6 961.446,-591.6"/>
<text text-anchor="middle" x="1035" y="-690.4" font-family="Times,serif" font-size="14.00">School</text>
<polyline fill="none" stroke="black" points="949.446,-683.6 1120.55,-683.6 "/>
<text text-anchor="start" x="957.446" y="-665.6" font-family="Times,serif" font-size="14.00">id :integer</text>
<text text-anchor="start" x="957.446" y="-648.8" font-family="Times,serif" font-size="14.00">name :string</text>
<text text-anchor="start" x="957.446" y="-632" font-family="Times,serif" font-size="14.00">donations_received :integer</text>
<text text-anchor="start" x="957.446" y="-615.2" font-family="Times,serif" font-size="14.00">created_at :datetime</text>
<text text-anchor="start" x="957.446" y="-598.4" font-family="Times,serif" font-size="14.00">updated_at :datetime</text>
</g>
<!-- School&#45;&gt;DraftGrant -->
<g id="edge12" class="edge"><title>School&#45;&gt;DraftGrant</title>
<path fill="none" stroke="#08fbb8" d="M1001.49,-584.381C984.721,-554.468 963.093,-519.179 940,-490 884.639,-420.05 811.5,-350.166 755.309,-300.186"/>
<ellipse fill="none" stroke="#08fbb8" cx="1003.48" cy="-587.969" rx="4.00002" ry="4.00002"/>
<polygon fill="#08fbb8" stroke="#08fbb8" points="754.983,-299.897 750.48,-289.899 751.24,-296.583 747.496,-293.268 747.496,-293.268 747.496,-293.268 751.24,-296.583 744.513,-296.637 754.983,-299.897 754.983,-299.897"/>
</g>
<!-- School&#45;&gt;Grant -->
<g id="edge11" class="edge"><title>School&#45;&gt;Grant</title>
<path fill="none" stroke="#fbcd44" d="M1035,-582.98C1035,-549.903 1035,-507.628 1035,-463.87"/>
<ellipse fill="none" stroke="#fbcd44" cx="1035" cy="-587.344" rx="4" ry="4"/>
<polygon fill="#fbcd44" stroke="#fbcd44" points="1035,-463.62 1039.5,-453.62 1035,-458.62 1035,-453.62 1035,-453.62 1035,-453.62 1035,-458.62 1030.5,-453.62 1035,-463.62 1035,-463.62"/>
</g>
<!-- User -->
<g id="node10" class="node"><title>User</title>
<path fill="none" stroke="black" d="M579.722,-846.8C579.722,-846.8 760.278,-846.8 760.278,-846.8 766.278,-846.8 772.278,-852.8 772.278,-858.8 772.278,-858.8 772.278,-1153.2 772.278,-1153.2 772.278,-1159.2 766.278,-1165.2 760.278,-1165.2 760.278,-1165.2 579.722,-1165.2 579.722,-1165.2 573.722,-1165.2 567.722,-1159.2 567.722,-1153.2 567.722,-1153.2 567.722,-858.8 567.722,-858.8 567.722,-852.8 573.722,-846.8 579.722,-846.8"/>
<text text-anchor="middle" x="670" y="-1147.2" font-family="Times,serif" font-size="14.00">User</text>
<polyline fill="none" stroke="black" points="567.722,-1140.4 772.278,-1140.4 "/>
<text text-anchor="start" x="575.722" y="-1122.4" font-family="Times,serif" font-size="14.00">id :integer</text>
<text text-anchor="start" x="575.722" y="-1105.6" font-family="Times,serif" font-size="14.00">email :string</text>
<text text-anchor="start" x="575.722" y="-1088.8" font-family="Times,serif" font-size="14.00">encrypted_password :string</text>
<text text-anchor="start" x="575.722" y="-1072" font-family="Times,serif" font-size="14.00">reset_password_token :string</text>
<text text-anchor="start" x="575.722" y="-1055.2" font-family="Times,serif" font-size="14.00">reset_password_sent_at :datetime</text>
<text text-anchor="start" x="575.722" y="-1038.4" font-family="Times,serif" font-size="14.00">remember_created_at :datetime</text>
<text text-anchor="start" x="575.722" y="-1021.6" font-family="Times,serif" font-size="14.00">sign_in_count :integer</text>
<text text-anchor="start" x="575.722" y="-1004.8" font-family="Times,serif" font-size="14.00">current_sign_in_at :datetime</text>
<text text-anchor="start" x="575.722" y="-988" font-family="Times,serif" font-size="14.00">last_sign_in_at :datetime</text>
<text text-anchor="start" x="575.722" y="-971.2" font-family="Times,serif" font-size="14.00">current_sign_in_ip :string</text>
<text text-anchor="start" x="575.722" y="-954.4" font-family="Times,serif" font-size="14.00">last_sign_in_ip :string</text>
<text text-anchor="start" x="575.722" y="-937.6" font-family="Times,serif" font-size="14.00">created_at :datetime</text>
<text text-anchor="start" x="575.722" y="-920.8" font-family="Times,serif" font-size="14.00">updated_at :datetime</text>
<text text-anchor="start" x="575.722" y="-904" font-family="Times,serif" font-size="14.00">type :string</text>
<text text-anchor="start" x="575.722" y="-887.2" font-family="Times,serif" font-size="14.00">first_name :string</text>
<text text-anchor="start" x="575.722" y="-870.4" font-family="Times,serif" font-size="14.00">last_name :string</text>
<text text-anchor="start" x="575.722" y="-853.6" font-family="Times,serif" font-size="14.00">stripe_token :string</text>
</g>
<!-- User&#45;&gt;Admin -->
<g id="edge2" class="edge"><title>User&#45;&gt;Admin</title>
<path fill="none" stroke="black" d="M570.24,-846.637C563.33,-835.667 556.359,-824.601 549.434,-813.609"/>
<polyline fill="none" stroke="black" points="546.68,-809.236 549.345,-813.466 "/>
</g>
<!-- User&#45;&gt;Payment -->
<g id="edge14" class="edge"><title>User&#45;&gt;Payment</title>
<path fill="none" stroke="#1ec2b7" d="M765.071,-839.328C770.511,-829.433 775.856,-819.602 781,-810 794.004,-785.726 807.649,-759.085 819.913,-734.666"/>
<ellipse fill="none" stroke="#1ec2b7" cx="763.026" cy="-843.039" rx="4.00002" ry="4.00002"/>
<polygon fill="#1ec2b7" stroke="#1ec2b7" points="820.062,-734.366 828.564,-727.44 822.302,-729.896 824.541,-725.425 824.541,-725.425 824.541,-725.425 822.302,-729.896 820.517,-723.41 820.062,-734.366 820.062,-734.366"/>
</g>
<!-- User&#45;&gt;Recipient -->
<g id="edge10" class="edge"><title>User&#45;&gt;Recipient</title>
<path fill="none" stroke="black" d="M670,-846.637C670,-835.959 670,-825.188 670,-814.484"/>
<polyline fill="none" stroke="black" points="670,-809.236 670,-814.236 "/>
</g>
<!-- Object -->
<g id="node11" class="node"><title>Object</title>
<ellipse fill="none" stroke="black" cx="261" cy="-1245" rx="36.1697" ry="18"/>
<text text-anchor="middle" x="261" y="-1239.4" font-family="Times,serif" font-size="14.00">Object</text>
</g>
<!-- Object&#45;&gt;Ability -->
<g id="edge1" class="edge"><title>Object&#45;&gt;Ability</title>
<path fill="none" stroke="black" d="M261,-1226.96C261,-1186.92 261,-1086.46 261,-1036.36"/>
<polyline fill="none" stroke="black" points="261,-1031.09 261,-1036.09 "/>
</g>
<!-- ActiveRecord::Base -->
<g id="node12" class="node"><title>ActiveRecord::Base</title>
<ellipse fill="none" stroke="black" cx="909" cy="-1245" rx="88.2033" ry="18"/>
<text text-anchor="middle" x="909" y="-1239.4" font-family="Times,serif" font-size="14.00">ActiveRecord::Base</text>
</g>
<!-- ActiveRecord::Base&#45;&gt;Crowdfund -->
<g id="edge4" class="edge"><title>ActiveRecord::Base&#45;&gt;Crowdfund</title>
<path fill="none" stroke="black" d="M905.476,-1226.96C899.12,-1196.21 885.401,-1129.86 874.684,-1078.02"/>
<polyline fill="none" stroke="black" points="873.656,-1073.05 874.669,-1077.95 "/>
</g>
<!-- ActiveRecord::Base&#45;&gt;DraftGrant -->
<g id="edge5" class="edge"><title>ActiveRecord::Base&#45;&gt;DraftGrant</title>
<path fill="none" stroke="black" d="M820.903,-1242.88C745.176,-1237.87 636.276,-1220.61 559,-1166 406.532,-1058.25 387.561,-989.44 336,-810 296.723,-673.309 273.779,-617.889 336,-490 387.924,-383.276 506.694,-307.145 587.66,-265.35"/>
<polyline fill="none" stroke="black" points="592.453,-262.893 588.004,-265.174 "/>
</g>
<!-- ActiveRecord::Base&#45;&gt;Grant -->
<g id="edge6" class="edge"><title>ActiveRecord::Base&#45;&gt;Grant</title>
<path fill="none" stroke="black" d="M937.149,-1227.83C958.996,-1213.96 988.574,-1192.12 1007,-1166 1103.41,-1029.33 1101.52,-974.982 1129,-810 1152.37,-669.711 1153.37,-630.118 1129,-490 1125.3,-468.754 1120.04,-446.954 1113.87,-425.438"/>
<polyline fill="none" stroke="black" points="1112.45,-420.562 1113.85,-425.364 "/>
</g>
<!-- ActiveRecord::Base&#45;&gt;Payment -->
<g id="edge7" class="edge"><title>ActiveRecord::Base&#45;&gt;Payment</title>
<path fill="none" stroke="black" d="M917.405,-1226.85C924.492,-1211.37 934.087,-1187.76 938,-1166 963.179,-1026.02 964.586,-985.715 938,-846 930.479,-806.476 915.097,-764.728 900.045,-730.046"/>
<polyline fill="none" stroke="black" points="898.02,-725.418 900.025,-729.999 "/>
</g>
<!-- ActiveRecord::Base&#45;&gt;School -->
<g id="edge13" class="edge"><title>ActiveRecord::Base&#45;&gt;School</title>
<path fill="none" stroke="black" d="M923.636,-1226.98C935.706,-1211.97 952.22,-1188.95 961,-1166 1020.29,-1011.01 1032.59,-813.25 1034.81,-713.925"/>
<polyline fill="none" stroke="black" points="1034.92,-708.688 1034.82,-713.687 "/>
</g>
<!-- ActiveRecord::Base&#45;&gt;User -->
<g id="edge15" class="edge"><title>ActiveRecord::Base&#45;&gt;User</title>
<path fill="none" stroke="black" d="M875.442,-1228.2C848.259,-1214.34 810.011,-1192.3 782,-1166 780,-1164.12 778.014,-1162.2 776.044,-1160.25"/>
<polyline fill="none" stroke="black" points="772.513,-1156.69 776.035,-1160.24 "/>
</g>
</g>
</svg>
