<?xml version="1.0" encoding="UTF-8" standalone="no"?>
<!DOCTYPE svg PUBLIC "-//W3C//DTD SVG 1.1//EN"
 "http://www.w3.org/Graphics/SVG/1.1/DTD/svg11.dtd">
<!-- Generated by graphviz version 2.34.0 (20131002.2312)
 -->
<!-- Title: models_diagram Pages: 1 -->
<svg width="1255pt" height="2434pt"
 viewBox="0.00 0.00 1255.00 2434.00" xmlns="http://www.w3.org/2000/svg" xmlns:xlink="http://www.w3.org/1999/xlink">
<g id="graph0" class="graph" transform="scale(1 1) rotate(0) translate(4 2430)">
<title>models_diagram</title>
<polygon fill="white" stroke="white" points="-4,4 -4,-2430 1251,-2430 1251,4 -4,4"/>
<!-- _diagram_info -->
<g id="node1" class="node"><title>_diagram_info</title>
<text text-anchor="start" x="7.55029" y="-2409" font-family="Times,serif" font-size="13.00">Models diagram</text>
<text text-anchor="start" x="7.55029" y="-2393.4" font-family="Times,serif" font-size="13.00">Date: Nov 28 2013 &#45; 20:48</text>
<text text-anchor="start" x="7.55029" y="-2377.8" font-family="Times,serif" font-size="13.00">Migration version: 20131125213657</text>
<text text-anchor="start" x="7.55029" y="-2362.2" font-family="Times,serif" font-size="13.00">Generated by RailRoady 1.1.1</text>
<text text-anchor="start" x="7.55029" y="-2346.6" font-family="Times,serif" font-size="13.00">http://railroady.prestonlee.com</text>
</g>
<!-- Ability -->
<g id="node2" class="node"><title>Ability</title>
<polygon fill="none" stroke="black" points="233.166,-2109.2 233.166,-2158.8 288.834,-2158.8 288.834,-2109.2 233.166,-2109.2"/>
<text text-anchor="middle" x="261" y="-2140.8" font-family="Times,serif" font-size="14.00">Ability</text>
<polyline fill="none" stroke="black" points="233.166,-2134 288.834,-2134 "/>
<text text-anchor="middle" x="261" y="-2116" font-family="Times,serif" font-size="14.00"> </text>
</g>
<!-- Admin -->
<g id="node3" class="node"><title>Admin</title>
<path fill="none" stroke="black" d="M933.722,-290.4C933.722,-290.4 1114.28,-290.4 1114.28,-290.4 1120.28,-290.4 1126.28,-296.4 1126.28,-302.4 1126.28,-302.4 1126.28,-613.6 1126.28,-613.6 1126.28,-619.6 1120.28,-625.6 1114.28,-625.6 1114.28,-625.6 933.722,-625.6 933.722,-625.6 927.722,-625.6 921.722,-619.6 921.722,-613.6 921.722,-613.6 921.722,-302.4 921.722,-302.4 921.722,-296.4 927.722,-290.4 933.722,-290.4"/>
<text text-anchor="middle" x="1024" y="-607.6" font-family="Times,serif" font-size="14.00">Admin</text>
<polyline fill="none" stroke="black" points="921.722,-600.8 1126.28,-600.8 "/>
<text text-anchor="start" x="929.722" y="-582.8" font-family="Times,serif" font-size="14.00">id :integer</text>
<text text-anchor="start" x="929.722" y="-566" font-family="Times,serif" font-size="14.00">email :string</text>
<text text-anchor="start" x="929.722" y="-549.2" font-family="Times,serif" font-size="14.00">encrypted_password :string</text>
<text text-anchor="start" x="929.722" y="-532.4" font-family="Times,serif" font-size="14.00">reset_password_token :string</text>
<text text-anchor="start" x="929.722" y="-515.6" font-family="Times,serif" font-size="14.00">reset_password_sent_at :datetime</text>
<text text-anchor="start" x="929.722" y="-498.8" font-family="Times,serif" font-size="14.00">remember_created_at :datetime</text>
<text text-anchor="start" x="929.722" y="-482" font-family="Times,serif" font-size="14.00">sign_in_count :integer</text>
<text text-anchor="start" x="929.722" y="-465.2" font-family="Times,serif" font-size="14.00">current_sign_in_at :datetime</text>
<text text-anchor="start" x="929.722" y="-448.4" font-family="Times,serif" font-size="14.00">last_sign_in_at :datetime</text>
<text text-anchor="start" x="929.722" y="-431.6" font-family="Times,serif" font-size="14.00">current_sign_in_ip :string</text>
<text text-anchor="start" x="929.722" y="-414.8" font-family="Times,serif" font-size="14.00">last_sign_in_ip :string</text>
<text text-anchor="start" x="929.722" y="-398" font-family="Times,serif" font-size="14.00">created_at :datetime</text>
<text text-anchor="start" x="929.722" y="-381.2" font-family="Times,serif" font-size="14.00">updated_at :datetime</text>
<text text-anchor="start" x="929.722" y="-364.4" font-family="Times,serif" font-size="14.00">type :string</text>
<text text-anchor="start" x="929.722" y="-347.6" font-family="Times,serif" font-size="14.00">first_name :string</text>
<text text-anchor="start" x="929.722" y="-330.8" font-family="Times,serif" font-size="14.00">last_name :string</text>
<text text-anchor="start" x="929.722" y="-314" font-family="Times,serif" font-size="14.00">stripe_token :string</text>
<text text-anchor="start" x="929.722" y="-297.2" font-family="Times,serif" font-size="14.00">approved :boolean</text>
</g>
<!-- AdminProfile -->
<g id="node4" class="node"><title>AdminProfile</title>
<path fill="none" stroke="black" d="M1118.6,-8.8C1118.6,-8.8 1235.4,-8.8 1235.4,-8.8 1241.4,-8.8 1247.4,-14.8 1247.4,-20.8 1247.4,-20.8 1247.4,-147.2 1247.4,-147.2 1247.4,-153.2 1241.4,-159.2 1235.4,-159.2 1235.4,-159.2 1118.6,-159.2 1118.6,-159.2 1112.6,-159.2 1106.6,-153.2 1106.6,-147.2 1106.6,-147.2 1106.6,-20.8 1106.6,-20.8 1106.6,-14.8 1112.6,-8.8 1118.6,-8.8"/>
<text text-anchor="middle" x="1177" y="-141.2" font-family="Times,serif" font-size="14.00">AdminProfile</text>
<polyline fill="none" stroke="black" points="1106.6,-134.4 1247.4,-134.4 "/>
<text text-anchor="start" x="1114.6" y="-116.4" font-family="Times,serif" font-size="14.00">id :integer</text>
<text text-anchor="start" x="1114.6" y="-99.6" font-family="Times,serif" font-size="14.00">about :string</text>
<text text-anchor="start" x="1114.6" y="-82.8" font-family="Times,serif" font-size="14.00">position :string</text>
<text text-anchor="start" x="1114.6" y="-66" font-family="Times,serif" font-size="14.00">created_at :datetime</text>
<text text-anchor="start" x="1114.6" y="-49.2" font-family="Times,serif" font-size="14.00">updated_at :datetime</text>
<text text-anchor="start" x="1114.6" y="-32.4" font-family="Times,serif" font-size="14.00">admin_id :integer</text>
<text text-anchor="start" x="1114.6" y="-15.6" font-family="Times,serif" font-size="14.00">super_user_id :integer</text>
</g>
<!-- Admin&#45;&gt;AdminProfile -->
<g id="edge3" class="edge"><title>Admin&#45;&gt;AdminProfile</title>
<path fill="none" stroke="#eb063c" d="M1086.9,-282.621C1099.42,-250.262 1112.91,-216.925 1126.45,-186 1129.19,-179.739 1132.12,-173.31 1135.14,-166.875"/>
<ellipse fill="none" stroke="#eb063c" cx="1085.34" cy="-286.651" rx="4.00001" ry="4.00001"/>
<ellipse fill="#eb063c" stroke="#eb063c" cx="1137.01" cy="-162.942" rx="4.00002" ry="4.00002"/>
<text text-anchor="middle" x="1144.28" y="-189.4" font-family="Times,serif" font-size="14.00">profile</text>
</g>
<!-- Rate -->
<g id="node10" class="node"><title>Rate</title>
<path fill="none" stroke="black" d="M946.495,-0.4C946.495,-0.4 1055.51,-0.4 1055.51,-0.4 1061.51,-0.4 1067.51,-6.4 1067.51,-12.4 1067.51,-12.4 1067.51,-155.6 1067.51,-155.6 1067.51,-161.6 1061.51,-167.6 1055.51,-167.6 1055.51,-167.6 946.495,-167.6 946.495,-167.6 940.495,-167.6 934.495,-161.6 934.495,-155.6 934.495,-155.6 934.495,-12.4 934.495,-12.4 934.495,-6.4 940.495,-0.4 946.495,-0.4"/>
<text text-anchor="middle" x="1001" y="-149.6" font-family="Times,serif" font-size="14.00">Rate</text>
<polyline fill="none" stroke="black" points="934.495,-142.8 1067.51,-142.8 "/>
<text text-anchor="start" x="942.495" y="-124.8" font-family="Times,serif" font-size="14.00">id :integer</text>
<text text-anchor="start" x="942.495" y="-108" font-family="Times,serif" font-size="14.00">rater_id :integer</text>
<text text-anchor="start" x="942.495" y="-91.2" font-family="Times,serif" font-size="14.00">rateable_id :integer</text>
<text text-anchor="start" x="942.495" y="-74.4" font-family="Times,serif" font-size="14.00">rateable_type :string</text>
<text text-anchor="start" x="942.495" y="-57.6" font-family="Times,serif" font-size="14.00">stars :integer</text>
<text text-anchor="start" x="942.495" y="-40.8" font-family="Times,serif" font-size="14.00">dimension :string</text>
<text text-anchor="start" x="942.495" y="-24" font-family="Times,serif" font-size="14.00">created_at :datetime</text>
<text text-anchor="start" x="942.495" y="-7.2" font-family="Times,serif" font-size="14.00">updated_at :datetime</text>
</g>
<!-- Admin&#45;&gt;Rate -->
<g id="edge2" class="edge"><title>Admin&#45;&gt;Rate</title>
<path fill="none" stroke="#843b27" d="M1006.78,-281.99C1004.75,-255.87 1002.98,-229.246 1001.79,-204 1001.39,-195.453 1001.1,-186.557 1000.89,-177.649"/>
<ellipse fill="none" stroke="#843b27" cx="1007.11" cy="-286.091" rx="4" ry="4"/>
<polygon fill="#843b27" stroke="#843b27" points="1000.89,-177.602 1005.19,-167.514 1000.79,-172.603 1000.69,-167.604 1000.69,-167.604 1000.69,-167.604 1000.79,-172.603 996.188,-167.694 1000.89,-177.602 1000.89,-177.602"/>
<text text-anchor="middle" x="1039.1" y="-189.4" font-family="Times,serif" font-size="14.00">ratings_given</text>
</g>
<!-- Crowdfund -->
<g id="node5" class="node"><title>Crowdfund</title>
<path fill="none" stroke="black" d="M364.771,-382.8C364.771,-382.8 479.229,-382.8 479.229,-382.8 485.229,-382.8 491.229,-388.8 491.229,-394.8 491.229,-394.8 491.229,-521.2 491.229,-521.2 491.229,-527.2 485.229,-533.2 479.229,-533.2 479.229,-533.2 364.771,-533.2 364.771,-533.2 358.771,-533.2 352.771,-527.2 352.771,-521.2 352.771,-521.2 352.771,-394.8 352.771,-394.8 352.771,-388.8 358.771,-382.8 364.771,-382.8"/>
<text text-anchor="middle" x="422" y="-515.2" font-family="Times,serif" font-size="14.00">Crowdfund</text>
<polyline fill="none" stroke="black" points="352.771,-508.4 491.229,-508.4 "/>
<text text-anchor="start" x="360.771" y="-490.4" font-family="Times,serif" font-size="14.00">id :integer</text>
<text text-anchor="start" x="360.771" y="-473.6" font-family="Times,serif" font-size="14.00">deadline :datetime</text>
<text text-anchor="start" x="360.771" y="-456.8" font-family="Times,serif" font-size="14.00">created_at :datetime</text>
<text text-anchor="start" x="360.771" y="-440" font-family="Times,serif" font-size="14.00">updated_at :datetime</text>
<text text-anchor="start" x="360.771" y="-423.2" font-family="Times,serif" font-size="14.00">goal :integer</text>
<text text-anchor="start" x="360.771" y="-406.4" font-family="Times,serif" font-size="14.00">pledged_total :integer</text>
<text text-anchor="start" x="360.771" y="-389.6" font-family="Times,serif" font-size="14.00">grant_id :integer</text>
</g>
<!-- Payment -->
<g id="node8" class="node"><title>Payment</title>
<path fill="none" stroke="black" d="M363.602,-8.8C363.602,-8.8 480.398,-8.8 480.398,-8.8 486.398,-8.8 492.398,-14.8 492.398,-20.8 492.398,-20.8 492.398,-147.2 492.398,-147.2 492.398,-153.2 486.398,-159.2 480.398,-159.2 480.398,-159.2 363.602,-159.2 363.602,-159.2 357.602,-159.2 351.602,-153.2 351.602,-147.2 351.602,-147.2 351.602,-20.8 351.602,-20.8 351.602,-14.8 357.602,-8.8 363.602,-8.8"/>
<text text-anchor="middle" x="422" y="-141.2" font-family="Times,serif" font-size="14.00">Payment</text>
<polyline fill="none" stroke="black" points="351.602,-134.4 492.398,-134.4 "/>
<text text-anchor="start" x="359.602" y="-116.4" font-family="Times,serif" font-size="14.00">id :integer</text>
<text text-anchor="start" x="359.602" y="-99.6" font-family="Times,serif" font-size="14.00">amount :integer</text>
<text text-anchor="start" x="359.602" y="-82.8" font-family="Times,serif" font-size="14.00">created_at :datetime</text>
<text text-anchor="start" x="359.602" y="-66" font-family="Times,serif" font-size="14.00">updated_at :datetime</text>
<text text-anchor="start" x="359.602" y="-49.2" font-family="Times,serif" font-size="14.00">user_id :integer</text>
<text text-anchor="start" x="359.602" y="-32.4" font-family="Times,serif" font-size="14.00">crowdfund_id :integer</text>
<text text-anchor="start" x="359.602" y="-15.6" font-family="Times,serif" font-size="14.00">charge_id :string</text>
</g>
<!-- Crowdfund&#45;&gt;Payment -->
<g id="edge6" class="edge"><title>Crowdfund&#45;&gt;Payment</title>
<path fill="none" stroke="#0dc16a" d="M422,-374.49C422,-313.496 422,-230.724 422,-169.308"/>
<ellipse fill="none" stroke="#0dc16a" cx="422" cy="-378.614" rx="4" ry="4"/>
<polygon fill="#0dc16a" stroke="#0dc16a" points="422,-169.257 426.5,-159.257 422,-164.257 422,-159.257 422,-159.257 422,-159.257 422,-164.257 417.5,-159.257 422,-169.257 422,-169.257"/>
</g>
<!-- DraftGrant -->
<g id="node6" class="node"><title>DraftGrant</title>
<path fill="none" stroke="black" d="M394.595,-749.2C394.595,-749.2 525.405,-749.2 525.405,-749.2 531.405,-749.2 537.405,-755.2 537.405,-761.2 537.405,-761.2 537.405,-1206.8 537.405,-1206.8 537.405,-1212.8 531.405,-1218.8 525.405,-1218.8 525.405,-1218.8 394.595,-1218.8 394.595,-1218.8 388.595,-1218.8 382.595,-1212.8 382.595,-1206.8 382.595,-1206.8 382.595,-761.2 382.595,-761.2 382.595,-755.2 388.595,-749.2 394.595,-749.2"/>
<text text-anchor="middle" x="460" y="-1200.8" font-family="Times,serif" font-size="14.00">DraftGrant</text>
<polyline fill="none" stroke="black" points="382.595,-1194 537.405,-1194 "/>
<text text-anchor="start" x="390.595" y="-1176" font-family="Times,serif" font-size="14.00">id :integer</text>
<text text-anchor="start" x="390.595" y="-1159.2" font-family="Times,serif" font-size="14.00">recipient_id :integer</text>
<text text-anchor="start" x="390.595" y="-1142.4" font-family="Times,serif" font-size="14.00">title :text</text>
<text text-anchor="start" x="390.595" y="-1125.6" font-family="Times,serif" font-size="14.00">summary :text</text>
<text text-anchor="start" x="390.595" y="-1108.8" font-family="Times,serif" font-size="14.00">subject_areas :text</text>
<text text-anchor="start" x="390.595" y="-1092" font-family="Times,serif" font-size="14.00">grade_level :text</text>
<text text-anchor="start" x="390.595" y="-1075.2" font-family="Times,serif" font-size="14.00">duration :text</text>
<text text-anchor="start" x="390.595" y="-1058.4" font-family="Times,serif" font-size="14.00">num_classes :integer</text>
<text text-anchor="start" x="390.595" y="-1041.6" font-family="Times,serif" font-size="14.00">num_students :integer</text>
<text text-anchor="start" x="390.595" y="-1024.8" font-family="Times,serif" font-size="14.00">total_budget :integer</text>
<text text-anchor="start" x="390.595" y="-1008" font-family="Times,serif" font-size="14.00">requested_funds :integer</text>
<text text-anchor="start" x="390.595" y="-991.2" font-family="Times,serif" font-size="14.00">funds_will_pay_for :text</text>
<text text-anchor="start" x="390.595" y="-974.4" font-family="Times,serif" font-size="14.00">budget_desc :text</text>
<text text-anchor="start" x="390.595" y="-957.6" font-family="Times,serif" font-size="14.00">purpose :text</text>
<text text-anchor="start" x="390.595" y="-940.8" font-family="Times,serif" font-size="14.00">methods :text</text>
<text text-anchor="start" x="390.595" y="-924" font-family="Times,serif" font-size="14.00">background :text</text>
<text text-anchor="start" x="390.595" y="-907.2" font-family="Times,serif" font-size="14.00">n_collaborators :integer</text>
<text text-anchor="start" x="390.595" y="-890.4" font-family="Times,serif" font-size="14.00">collaborators :text</text>
<text text-anchor="start" x="390.595" y="-873.6" font-family="Times,serif" font-size="14.00">comments :text</text>
<text text-anchor="start" x="390.595" y="-856.8" font-family="Times,serif" font-size="14.00">created_at :datetime</text>
<text text-anchor="start" x="390.595" y="-840" font-family="Times,serif" font-size="14.00">updated_at :datetime</text>
<text text-anchor="start" x="390.595" y="-823.2" font-family="Times,serif" font-size="14.00">video :string</text>
<text text-anchor="start" x="390.595" y="-806.4" font-family="Times,serif" font-size="14.00">image_url :string</text>
<text text-anchor="start" x="390.595" y="-789.6" font-family="Times,serif" font-size="14.00">school_id :integer</text>
<text text-anchor="start" x="390.595" y="-772.8" font-family="Times,serif" font-size="14.00">type :string</text>
<text text-anchor="start" x="390.595" y="-756" font-family="Times,serif" font-size="14.00">grant_id :integer</text>
</g>
<!-- PreapprovedGrant -->
<g id="node9" class="node"><title>PreapprovedGrant</title>
<path fill="none" stroke="black" d="M537.595,-223.2C537.595,-223.2 668.405,-223.2 668.405,-223.2 674.405,-223.2 680.405,-229.2 680.405,-235.2 680.405,-235.2 680.405,-680.8 680.405,-680.8 680.405,-686.8 674.405,-692.8 668.405,-692.8 668.405,-692.8 537.595,-692.8 537.595,-692.8 531.595,-692.8 525.595,-686.8 525.595,-680.8 525.595,-680.8 525.595,-235.2 525.595,-235.2 525.595,-229.2 531.595,-223.2 537.595,-223.2"/>
<text text-anchor="middle" x="603" y="-674.8" font-family="Times,serif" font-size="14.00">PreapprovedGrant</text>
<polyline fill="none" stroke="black" points="525.595,-668 680.405,-668 "/>
<text text-anchor="start" x="533.595" y="-650" font-family="Times,serif" font-size="14.00">id :integer</text>
<text text-anchor="start" x="533.595" y="-633.2" font-family="Times,serif" font-size="14.00">recipient_id :integer</text>
<text text-anchor="start" x="533.595" y="-616.4" font-family="Times,serif" font-size="14.00">title :text</text>
<text text-anchor="start" x="533.595" y="-599.6" font-family="Times,serif" font-size="14.00">summary :text</text>
<text text-anchor="start" x="533.595" y="-582.8" font-family="Times,serif" font-size="14.00">subject_areas :text</text>
<text text-anchor="start" x="533.595" y="-566" font-family="Times,serif" font-size="14.00">grade_level :text</text>
<text text-anchor="start" x="533.595" y="-549.2" font-family="Times,serif" font-size="14.00">duration :text</text>
<text text-anchor="start" x="533.595" y="-532.4" font-family="Times,serif" font-size="14.00">num_classes :integer</text>
<text text-anchor="start" x="533.595" y="-515.6" font-family="Times,serif" font-size="14.00">num_students :integer</text>
<text text-anchor="start" x="533.595" y="-498.8" font-family="Times,serif" font-size="14.00">total_budget :integer</text>
<text text-anchor="start" x="533.595" y="-482" font-family="Times,serif" font-size="14.00">requested_funds :integer</text>
<text text-anchor="start" x="533.595" y="-465.2" font-family="Times,serif" font-size="14.00">funds_will_pay_for :text</text>
<text text-anchor="start" x="533.595" y="-448.4" font-family="Times,serif" font-size="14.00">budget_desc :text</text>
<text text-anchor="start" x="533.595" y="-431.6" font-family="Times,serif" font-size="14.00">purpose :text</text>
<text text-anchor="start" x="533.595" y="-414.8" font-family="Times,serif" font-size="14.00">methods :text</text>
<text text-anchor="start" x="533.595" y="-398" font-family="Times,serif" font-size="14.00">background :text</text>
<text text-anchor="start" x="533.595" y="-381.2" font-family="Times,serif" font-size="14.00">n_collaborators :integer</text>
<text text-anchor="start" x="533.595" y="-364.4" font-family="Times,serif" font-size="14.00">collaborators :text</text>
<text text-anchor="start" x="533.595" y="-347.6" font-family="Times,serif" font-size="14.00">comments :text</text>
<text text-anchor="start" x="533.595" y="-330.8" font-family="Times,serif" font-size="14.00">created_at :datetime</text>
<text text-anchor="start" x="533.595" y="-314" font-family="Times,serif" font-size="14.00">updated_at :datetime</text>
<text text-anchor="start" x="533.595" y="-297.2" font-family="Times,serif" font-size="14.00">video :string</text>
<text text-anchor="start" x="533.595" y="-280.4" font-family="Times,serif" font-size="14.00">image_url :string</text>
<text text-anchor="start" x="533.595" y="-263.6" font-family="Times,serif" font-size="14.00">school_id :integer</text>
<text text-anchor="start" x="533.595" y="-246.8" font-family="Times,serif" font-size="14.00">type :string</text>
<text text-anchor="start" x="533.595" y="-230" font-family="Times,serif" font-size="14.00">grant_id :integer</text>
</g>
<!-- DraftGrant&#45;&gt;PreapprovedGrant -->
<g id="edge15" class="edge"><title>DraftGrant&#45;&gt;PreapprovedGrant</title>
<path fill="none" stroke="black" d="M523.867,-748.969C528.453,-732.164 533.082,-715.203 537.676,-698.368"/>
<polyline fill="none" stroke="black" points="539.101,-693.147 537.785,-697.971 "/>
</g>
<!-- Grant -->
<g id="node7" class="node"><title>Grant</title>
<path fill="none" stroke="black" d="M567.595,-749.2C567.595,-749.2 698.405,-749.2 698.405,-749.2 704.405,-749.2 710.405,-755.2 710.405,-761.2 710.405,-761.2 710.405,-1206.8 710.405,-1206.8 710.405,-1212.8 704.405,-1218.8 698.405,-1218.8 698.405,-1218.8 567.595,-1218.8 567.595,-1218.8 561.595,-1218.8 555.595,-1212.8 555.595,-1206.8 555.595,-1206.8 555.595,-761.2 555.595,-761.2 555.595,-755.2 561.595,-749.2 567.595,-749.2"/>
<text text-anchor="middle" x="633" y="-1200.8" font-family="Times,serif" font-size="14.00">Grant</text>
<polyline fill="none" stroke="black" points="555.595,-1194 710.405,-1194 "/>
<text text-anchor="start" x="563.595" y="-1176" font-family="Times,serif" font-size="14.00">id :integer</text>
<text text-anchor="start" x="563.595" y="-1159.2" font-family="Times,serif" font-size="14.00">created_at :datetime</text>
<text text-anchor="start" x="563.595" y="-1142.4" font-family="Times,serif" font-size="14.00">updated_at :datetime</text>
<text text-anchor="start" x="563.595" y="-1125.6" font-family="Times,serif" font-size="14.00">title :text</text>
<text text-anchor="start" x="563.595" y="-1108.8" font-family="Times,serif" font-size="14.00">summary :text</text>
<text text-anchor="start" x="563.595" y="-1092" font-family="Times,serif" font-size="14.00">subject_areas :text</text>
<text text-anchor="start" x="563.595" y="-1075.2" font-family="Times,serif" font-size="14.00">grade_level :text</text>
<text text-anchor="start" x="563.595" y="-1058.4" font-family="Times,serif" font-size="14.00">duration :text</text>
<text text-anchor="start" x="563.595" y="-1041.6" font-family="Times,serif" font-size="14.00">num_classes :integer</text>
<text text-anchor="start" x="563.595" y="-1024.8" font-family="Times,serif" font-size="14.00">num_students :integer</text>
<text text-anchor="start" x="563.595" y="-1008" font-family="Times,serif" font-size="14.00">total_budget :integer</text>
<text text-anchor="start" x="563.595" y="-991.2" font-family="Times,serif" font-size="14.00">requested_funds :integer</text>
<text text-anchor="start" x="563.595" y="-974.4" font-family="Times,serif" font-size="14.00">funds_will_pay_for :text</text>
<text text-anchor="start" x="563.595" y="-957.6" font-family="Times,serif" font-size="14.00">budget_desc :text</text>
<text text-anchor="start" x="563.595" y="-940.8" font-family="Times,serif" font-size="14.00">purpose :text</text>
<text text-anchor="start" x="563.595" y="-924" font-family="Times,serif" font-size="14.00">methods :text</text>
<text text-anchor="start" x="563.595" y="-907.2" font-family="Times,serif" font-size="14.00">background :text</text>
<text text-anchor="start" x="563.595" y="-890.4" font-family="Times,serif" font-size="14.00">n_collaborators :integer</text>
<text text-anchor="start" x="563.595" y="-873.6" font-family="Times,serif" font-size="14.00">collaborators :text</text>
<text text-anchor="start" x="563.595" y="-856.8" font-family="Times,serif" font-size="14.00">comments :text</text>
<text text-anchor="start" x="563.595" y="-840" font-family="Times,serif" font-size="14.00">recipient_id :integer</text>
<text text-anchor="start" x="563.595" y="-823.2" font-family="Times,serif" font-size="14.00">state :string</text>
<text text-anchor="start" x="563.595" y="-806.4" font-family="Times,serif" font-size="14.00">video :string</text>
<text text-anchor="start" x="563.595" y="-789.6" font-family="Times,serif" font-size="14.00">image_url :string</text>
<text text-anchor="start" x="563.595" y="-772.8" font-family="Times,serif" font-size="14.00">school_id :integer</text>
<text text-anchor="start" x="563.595" y="-756" font-family="Times,serif" font-size="14.00">rating_average :decimal</text>
</g>
<!-- Grant&#45;&gt;Admin -->
<g id="edge12" class="edge"><title>Grant&#45;&gt;Admin</title>
<path fill="none" stroke="#4d9f4b" d="M717.078,-750.108C717.714,-749.4 718.355,-748.698 719,-748 745.148,-719.736 761.475,-724.771 797.8,-712 828.592,-701.174 842.391,-712.903 869,-694 892.078,-677.606 912.647,-656.6 930.662,-633.909"/>
<polygon fill="#4d9f4b" stroke="#4d9f4b" points="716.935,-750.276 707.021,-754.961 713.689,-754.079 710.444,-757.882 710.444,-757.882 710.444,-757.882 713.689,-754.079 713.866,-760.803 716.935,-750.276 716.935,-750.276"/>
<polygon fill="#4d9f4b" stroke="#4d9f4b" points="930.805,-633.724 940.485,-628.573 933.866,-629.771 936.927,-625.818 936.927,-625.818 936.927,-625.818 933.866,-629.771 933.369,-623.062 930.805,-633.724 930.805,-633.724"/>
<text text-anchor="middle" x="870.1" y="-715.4" font-family="Times,serif" font-size="14.00">raters_without_dimension</text>
</g>
<!-- Grant&#45;&gt;Crowdfund -->
<g id="edge9" class="edge"><title>Grant&#45;&gt;Crowdfund</title>
<path fill="none" stroke="#05bda9" d="M552.306,-762.242C550.216,-757.437 548.113,-752.685 546,-748 534.8,-723.167 528.567,-718.665 517,-694 493.549,-643.992 470.257,-586.532 452.606,-540.947"/>
<ellipse fill="none" stroke="#05bda9" cx="553.994" cy="-766.158" rx="4.00002" ry="4.00002"/>
<ellipse fill="#05bda9" stroke="#05bda9" cx="451.152" cy="-537.179" rx="4.00001" ry="4.00001"/>
<text text-anchor="middle" x="571.762" y="-715.4" font-family="Times,serif" font-size="14.00">crowdfunder</text>
</g>
<!-- Grant&#45;&gt;PreapprovedGrant -->
<g id="edge10" class="edge"><title>Grant&#45;&gt;PreapprovedGrant</title>
<path fill="none" stroke="#a0b313" d="M619.128,-740.7C618.377,-727.589 617.623,-714.412 616.872,-701.301"/>
<ellipse fill="none" stroke="#a0b313" cx="619.373" cy="-744.976" rx="4" ry="4"/>
<ellipse fill="#a0b313" stroke="#a0b313" cx="616.634" cy="-697.141" rx="4" ry="4"/>
</g>
<!-- Grant&#45;&gt;Rate -->
<g id="edge11" class="edge"><title>Grant&#45;&gt;Rate</title>
<path fill="none" stroke="#7d8d13" d="M680.311,-740.591C683.282,-724.83 686.201,-709.194 689,-694 727.582,-484.569 650.722,-397.419 771.462,-222 808.247,-168.557 873.307,-132.628 924.792,-111.022"/>
<ellipse fill="none" stroke="#7d8d13" cx="679.495" cy="-744.912" rx="4.00001" ry="4.00001"/>
<polygon fill="#7d8d13" stroke="#7d8d13" points="924.983,-110.944 935.943,-111.318 929.61,-109.049 934.237,-107.154 934.237,-107.154 934.237,-107.154 929.61,-109.049 932.531,-102.989 924.983,-110.944 924.983,-110.944"/>
<text text-anchor="middle" x="841.769" y="-452.4" font-family="Times,serif" font-size="14.00">rates_without_dimension</text>
</g>
<!-- Recipient -->
<g id="node11" class="node"><title>Recipient</title>
<path fill="none" stroke="black" d="M660.722,-1592.4C660.722,-1592.4 841.278,-1592.4 841.278,-1592.4 847.278,-1592.4 853.278,-1598.4 853.278,-1604.4 853.278,-1604.4 853.278,-1915.6 853.278,-1915.6 853.278,-1921.6 847.278,-1927.6 841.278,-1927.6 841.278,-1927.6 660.722,-1927.6 660.722,-1927.6 654.722,-1927.6 648.722,-1921.6 648.722,-1915.6 648.722,-1915.6 648.722,-1604.4 648.722,-1604.4 648.722,-1598.4 654.722,-1592.4 660.722,-1592.4"/>
<text text-anchor="middle" x="751" y="-1909.6" font-family="Times,serif" font-size="14.00">Recipient</text>
<polyline fill="none" stroke="black" points="648.722,-1902.8 853.278,-1902.8 "/>
<text text-anchor="start" x="656.722" y="-1884.8" font-family="Times,serif" font-size="14.00">id :integer</text>
<text text-anchor="start" x="656.722" y="-1868" font-family="Times,serif" font-size="14.00">email :string</text>
<text text-anchor="start" x="656.722" y="-1851.2" font-family="Times,serif" font-size="14.00">encrypted_password :string</text>
<text text-anchor="start" x="656.722" y="-1834.4" font-family="Times,serif" font-size="14.00">reset_password_token :string</text>
<text text-anchor="start" x="656.722" y="-1817.6" font-family="Times,serif" font-size="14.00">reset_password_sent_at :datetime</text>
<text text-anchor="start" x="656.722" y="-1800.8" font-family="Times,serif" font-size="14.00">remember_created_at :datetime</text>
<text text-anchor="start" x="656.722" y="-1784" font-family="Times,serif" font-size="14.00">sign_in_count :integer</text>
<text text-anchor="start" x="656.722" y="-1767.2" font-family="Times,serif" font-size="14.00">current_sign_in_at :datetime</text>
<text text-anchor="start" x="656.722" y="-1750.4" font-family="Times,serif" font-size="14.00">last_sign_in_at :datetime</text>
<text text-anchor="start" x="656.722" y="-1733.6" font-family="Times,serif" font-size="14.00">current_sign_in_ip :string</text>
<text text-anchor="start" x="656.722" y="-1716.8" font-family="Times,serif" font-size="14.00">last_sign_in_ip :string</text>
<text text-anchor="start" x="656.722" y="-1700" font-family="Times,serif" font-size="14.00">created_at :datetime</text>
<text text-anchor="start" x="656.722" y="-1683.2" font-family="Times,serif" font-size="14.00">updated_at :datetime</text>
<text text-anchor="start" x="656.722" y="-1666.4" font-family="Times,serif" font-size="14.00">type :string</text>
<text text-anchor="start" x="656.722" y="-1649.6" font-family="Times,serif" font-size="14.00">first_name :string</text>
<text text-anchor="start" x="656.722" y="-1632.8" font-family="Times,serif" font-size="14.00">last_name :string</text>
<text text-anchor="start" x="656.722" y="-1616" font-family="Times,serif" font-size="14.00">stripe_token :string</text>
<text text-anchor="start" x="656.722" y="-1599.2" font-family="Times,serif" font-size="14.00">approved :boolean</text>
</g>
<!-- Recipient&#45;&gt;DraftGrant -->
<g id="edge18" class="edge"><title>Recipient&#45;&gt;DraftGrant</title>
<path fill="none" stroke="#7eaa4c" d="M674.337,-1584.83C672.867,-1581.19 671.42,-1577.58 670,-1574 624.689,-1459.76 578.385,-1331.37 540.828,-1223.69"/>
<ellipse fill="none" stroke="#7eaa4c" cx="675.877" cy="-1588.62" rx="4.00001" ry="4.00001"/>
<polygon fill="#7eaa4c" stroke="#7eaa4c" points="540.742,-1223.44 541.701,-1212.52 539.097,-1218.72 537.452,-1214 537.452,-1214 537.452,-1214 539.097,-1218.72 533.202,-1215.48 540.742,-1223.44 540.742,-1223.44"/>
</g>
<!-- Recipient&#45;&gt;Grant -->
<g id="edge17" class="edge"><title>Recipient&#45;&gt;Grant</title>
<path fill="none" stroke="#bf4eb1" d="M724.315,-1583.96C708.322,-1479.06 687.75,-1344.12 670.181,-1228.88"/>
<ellipse fill="none" stroke="#bf4eb1" cx="724.938" cy="-1588.05" rx="4.00001" ry="4.00001"/>
<polygon fill="#bf4eb1" stroke="#bf4eb1" points="670.16,-1228.74 673.101,-1218.18 669.406,-1223.8 668.653,-1218.86 668.653,-1218.86 668.653,-1218.86 669.406,-1223.8 664.204,-1219.54 670.16,-1228.74 670.16,-1228.74"/>
</g>
<!-- RecipientProfile -->
<g id="node12" class="node"><title>RecipientProfile</title>
<path fill="none" stroke="black" d="M740.336,-883.6C740.336,-883.6 879.664,-883.6 879.664,-883.6 885.664,-883.6 891.664,-889.6 891.664,-895.6 891.664,-895.6 891.664,-1072.4 891.664,-1072.4 891.664,-1078.4 885.664,-1084.4 879.664,-1084.4 879.664,-1084.4 740.336,-1084.4 740.336,-1084.4 734.336,-1084.4 728.336,-1078.4 728.336,-1072.4 728.336,-1072.4 728.336,-895.6 728.336,-895.6 728.336,-889.6 734.336,-883.6 740.336,-883.6"/>
<text text-anchor="middle" x="810" y="-1066.4" font-family="Times,serif" font-size="14.00">RecipientProfile</text>
<polyline fill="none" stroke="black" points="728.336,-1059.6 891.664,-1059.6 "/>
<text text-anchor="start" x="736.336" y="-1041.6" font-family="Times,serif" font-size="14.00">id :integer</text>
<text text-anchor="start" x="736.336" y="-1024.8" font-family="Times,serif" font-size="14.00">school_id :integer</text>
<text text-anchor="start" x="736.336" y="-1008" font-family="Times,serif" font-size="14.00">image_url :string</text>
<text text-anchor="start" x="736.336" y="-991.2" font-family="Times,serif" font-size="14.00">about :text</text>
<text text-anchor="start" x="736.336" y="-974.4" font-family="Times,serif" font-size="14.00">created_at :datetime</text>
<text text-anchor="start" x="736.336" y="-957.6" font-family="Times,serif" font-size="14.00">updated_at :datetime</text>
<text text-anchor="start" x="736.336" y="-940.8" font-family="Times,serif" font-size="14.00">recipient_id :integer</text>
<text text-anchor="start" x="736.336" y="-924" font-family="Times,serif" font-size="14.00">started_teaching :datetime</text>
<text text-anchor="start" x="736.336" y="-907.2" font-family="Times,serif" font-size="14.00">subject :string</text>
<text text-anchor="start" x="736.336" y="-890.4" font-family="Times,serif" font-size="14.00">grade :string</text>
</g>
<!-- Recipient&#45;&gt;RecipientProfile -->
<g id="edge19" class="edge"><title>Recipient&#45;&gt;RecipientProfile</title>
<path fill="none" stroke="#616518" d="M764.356,-1583.79C775.857,-1432.91 792.09,-1219.96 801.778,-1092.86"/>
<ellipse fill="none" stroke="#616518" cx="764.034" cy="-1588.02" rx="4" ry="4"/>
<ellipse fill="#616518" stroke="#616518" cx="802.103" cy="-1088.6" rx="4" ry="4"/>
<text text-anchor="middle" x="807.276" y="-1400.4" font-family="Times,serif" font-size="14.00">profile</text>
</g>
<!-- School -->
<g id="node13" class="node"><title>School</title>
<path fill="none" stroke="black" d="M433.446,-1701.6C433.446,-1701.6 580.554,-1701.6 580.554,-1701.6 586.554,-1701.6 592.554,-1707.6 592.554,-1713.6 592.554,-1713.6 592.554,-1806.4 592.554,-1806.4 592.554,-1812.4 586.554,-1818.4 580.554,-1818.4 580.554,-1818.4 433.446,-1818.4 433.446,-1818.4 427.446,-1818.4 421.446,-1812.4 421.446,-1806.4 421.446,-1806.4 421.446,-1713.6 421.446,-1713.6 421.446,-1707.6 427.446,-1701.6 433.446,-1701.6"/>
<text text-anchor="middle" x="507" y="-1800.4" font-family="Times,serif" font-size="14.00">School</text>
<polyline fill="none" stroke="black" points="421.446,-1793.6 592.554,-1793.6 "/>
<text text-anchor="start" x="429.446" y="-1775.6" font-family="Times,serif" font-size="14.00">id :integer</text>
<text text-anchor="start" x="429.446" y="-1758.8" font-family="Times,serif" font-size="14.00">name :string</text>
<text text-anchor="start" x="429.446" y="-1742" font-family="Times,serif" font-size="14.00">donations_received :integer</text>
<text text-anchor="start" x="429.446" y="-1725.2" font-family="Times,serif" font-size="14.00">created_at :datetime</text>
<text text-anchor="start" x="429.446" y="-1708.4" font-family="Times,serif" font-size="14.00">updated_at :datetime</text>
</g>
<!-- School&#45;&gt;DraftGrant -->
<g id="edge23" class="edge"><title>School&#45;&gt;DraftGrant</title>
<path fill="none" stroke="#735ad2" d="M503.007,-1693.25C496.831,-1591.53 484.646,-1390.87 474.818,-1229.02"/>
<ellipse fill="none" stroke="#735ad2" cx="503.263" cy="-1697.46" rx="4" ry="4"/>
<polygon fill="#735ad2" stroke="#735ad2" points="474.81,-1228.89 478.696,-1218.64 474.507,-1223.9 474.204,-1218.91 474.204,-1218.91 474.204,-1218.91 474.507,-1223.9 469.712,-1219.18 474.81,-1228.89 474.81,-1228.89"/>
</g>
<!-- School&#45;&gt;Grant -->
<g id="edge22" class="edge"><title>School&#45;&gt;Grant</title>
<path fill="none" stroke="#42db72" d="M517.704,-1693.25C534.262,-1591.53 566.928,-1390.87 593.275,-1229.02"/>
<ellipse fill="none" stroke="#42db72" cx="517.01" cy="-1697.51" rx="4.00001" ry="4.00001"/>
<polygon fill="#42db72" stroke="#42db72" points="593.315,-1228.78 599.363,-1219.63 594.118,-1223.84 594.922,-1218.91 594.922,-1218.91 594.922,-1218.91 594.118,-1223.84 590.48,-1218.19 593.315,-1228.78 593.315,-1228.78"/>
</g>
<!-- SuperUser -->
<g id="node14" class="node"><title>SuperUser</title>
<path fill="none" stroke="black" d="M984.722,-1238.4C984.722,-1238.4 1165.28,-1238.4 1165.28,-1238.4 1171.28,-1238.4 1177.28,-1244.4 1177.28,-1250.4 1177.28,-1250.4 1177.28,-1561.6 1177.28,-1561.6 1177.28,-1567.6 1171.28,-1573.6 1165.28,-1573.6 1165.28,-1573.6 984.722,-1573.6 984.722,-1573.6 978.722,-1573.6 972.722,-1567.6 972.722,-1561.6 972.722,-1561.6 972.722,-1250.4 972.722,-1250.4 972.722,-1244.4 978.722,-1238.4 984.722,-1238.4"/>
<text text-anchor="middle" x="1075" y="-1555.6" font-family="Times,serif" font-size="14.00">SuperUser</text>
<polyline fill="none" stroke="black" points="972.722,-1548.8 1177.28,-1548.8 "/>
<text text-anchor="start" x="980.722" y="-1530.8" font-family="Times,serif" font-size="14.00">id :integer</text>
<text text-anchor="start" x="980.722" y="-1514" font-family="Times,serif" font-size="14.00">email :string</text>
<text text-anchor="start" x="980.722" y="-1497.2" font-family="Times,serif" font-size="14.00">encrypted_password :string</text>
<text text-anchor="start" x="980.722" y="-1480.4" font-family="Times,serif" font-size="14.00">reset_password_token :string</text>
<text text-anchor="start" x="980.722" y="-1463.6" font-family="Times,serif" font-size="14.00">reset_password_sent_at :datetime</text>
<text text-anchor="start" x="980.722" y="-1446.8" font-family="Times,serif" font-size="14.00">remember_created_at :datetime</text>
<text text-anchor="start" x="980.722" y="-1430" font-family="Times,serif" font-size="14.00">sign_in_count :integer</text>
<text text-anchor="start" x="980.722" y="-1413.2" font-family="Times,serif" font-size="14.00">current_sign_in_at :datetime</text>
<text text-anchor="start" x="980.722" y="-1396.4" font-family="Times,serif" font-size="14.00">last_sign_in_at :datetime</text>
<text text-anchor="start" x="980.722" y="-1379.6" font-family="Times,serif" font-size="14.00">current_sign_in_ip :string</text>
<text text-anchor="start" x="980.722" y="-1362.8" font-family="Times,serif" font-size="14.00">last_sign_in_ip :string</text>
<text text-anchor="start" x="980.722" y="-1346" font-family="Times,serif" font-size="14.00">created_at :datetime</text>
<text text-anchor="start" x="980.722" y="-1329.2" font-family="Times,serif" font-size="14.00">updated_at :datetime</text>
<text text-anchor="start" x="980.722" y="-1312.4" font-family="Times,serif" font-size="14.00">type :string</text>
<text text-anchor="start" x="980.722" y="-1295.6" font-family="Times,serif" font-size="14.00">first_name :string</text>
<text text-anchor="start" x="980.722" y="-1278.8" font-family="Times,serif" font-size="14.00">last_name :string</text>
<text text-anchor="start" x="980.722" y="-1262" font-family="Times,serif" font-size="14.00">stripe_token :string</text>
<text text-anchor="start" x="980.722" y="-1245.2" font-family="Times,serif" font-size="14.00">approved :boolean</text>
</g>
<!-- SuperUser&#45;&gt;AdminProfile -->
<g id="edge25" class="edge"><title>SuperUser&#45;&gt;AdminProfile</title>
<path fill="none" stroke="#cb4d46" d="M1090.52,-1229.97C1103.1,-1086.09 1120.98,-876.894 1135,-694 1149.42,-505.93 1164.09,-285.007 1171.69,-167.815"/>
<ellipse fill="none" stroke="#cb4d46" cx="1090.16" cy="-1234.07" rx="4" ry="4"/>
<ellipse fill="#cb4d46" stroke="#cb4d46" cx="1171.97" cy="-163.55" rx="4" ry="4"/>
<text text-anchor="middle" x="1150.28" y="-715.4" font-family="Times,serif" font-size="14.00">profile</text>
</g>
<!-- User -->
<g id="node15" class="node"><title>User</title>
<path fill="none" stroke="black" d="M888.722,-1966.4C888.722,-1966.4 1069.28,-1966.4 1069.28,-1966.4 1075.28,-1966.4 1081.28,-1972.4 1081.28,-1978.4 1081.28,-1978.4 1081.28,-2289.6 1081.28,-2289.6 1081.28,-2295.6 1075.28,-2301.6 1069.28,-2301.6 1069.28,-2301.6 888.722,-2301.6 888.722,-2301.6 882.722,-2301.6 876.722,-2295.6 876.722,-2289.6 876.722,-2289.6 876.722,-1978.4 876.722,-1978.4 876.722,-1972.4 882.722,-1966.4 888.722,-1966.4"/>
<text text-anchor="middle" x="979" y="-2283.6" font-family="Times,serif" font-size="14.00">User</text>
<polyline fill="none" stroke="black" points="876.722,-2276.8 1081.28,-2276.8 "/>
<text text-anchor="start" x="884.722" y="-2258.8" font-family="Times,serif" font-size="14.00">id :integer</text>
<text text-anchor="start" x="884.722" y="-2242" font-family="Times,serif" font-size="14.00">email :string</text>
<text text-anchor="start" x="884.722" y="-2225.2" font-family="Times,serif" font-size="14.00">encrypted_password :string</text>
<text text-anchor="start" x="884.722" y="-2208.4" font-family="Times,serif" font-size="14.00">reset_password_token :string</text>
<text text-anchor="start" x="884.722" y="-2191.6" font-family="Times,serif" font-size="14.00">reset_password_sent_at :datetime</text>
<text text-anchor="start" x="884.722" y="-2174.8" font-family="Times,serif" font-size="14.00">remember_created_at :datetime</text>
<text text-anchor="start" x="884.722" y="-2158" font-family="Times,serif" font-size="14.00">sign_in_count :integer</text>
<text text-anchor="start" x="884.722" y="-2141.2" font-family="Times,serif" font-size="14.00">current_sign_in_at :datetime</text>
<text text-anchor="start" x="884.722" y="-2124.4" font-family="Times,serif" font-size="14.00">last_sign_in_at :datetime</text>
<text text-anchor="start" x="884.722" y="-2107.6" font-family="Times,serif" font-size="14.00">current_sign_in_ip :string</text>
<text text-anchor="start" x="884.722" y="-2090.8" font-family="Times,serif" font-size="14.00">last_sign_in_ip :string</text>
<text text-anchor="start" x="884.722" y="-2074" font-family="Times,serif" font-size="14.00">created_at :datetime</text>
<text text-anchor="start" x="884.722" y="-2057.2" font-family="Times,serif" font-size="14.00">updated_at :datetime</text>
<text text-anchor="start" x="884.722" y="-2040.4" font-family="Times,serif" font-size="14.00">type :string</text>
<text text-anchor="start" x="884.722" y="-2023.6" font-family="Times,serif" font-size="14.00">first_name :string</text>
<text text-anchor="start" x="884.722" y="-2006.8" font-family="Times,serif" font-size="14.00">last_name :string</text>
<text text-anchor="start" x="884.722" y="-1990" font-family="Times,serif" font-size="14.00">stripe_token :string</text>
<text text-anchor="start" x="884.722" y="-1973.2" font-family="Times,serif" font-size="14.00">approved :boolean</text>
</g>
<!-- User&#45;&gt;Admin -->
<g id="edge4" class="edge"><title>User&#45;&gt;Admin</title>
<path fill="none" stroke="black" d="M976.368,-1966.37C974.747,-1855.23 972.826,-1705.87 972,-1574 971.065,-1424.67 967.024,-1387.25 972,-1238 978.975,-1028.77 996.461,-788.458 1009.24,-630.724"/>
<polyline fill="none" stroke="black" points="1009.65,-625.615 1009.25,-630.599 "/>
</g>
<!-- User&#45;&gt;Payment -->
<g id="edge27" class="edge"><title>User&#45;&gt;Payment</title>
<path fill="none" stroke="#b11cbd" d="M969.591,-1958.11C969.051,-1947.92 968.517,-1937.83 968,-1928 966.753,-1904.31 894.656,-240.658 880,-222 833.298,-162.545 621.098,-118.327 502.618,-97.7715"/>
<ellipse fill="none" stroke="#b11cbd" cx="969.814" cy="-1962.3" rx="4" ry="4"/>
<polygon fill="#b11cbd" stroke="#b11cbd" points="502.359,-97.7271 493.265,-91.5996 497.431,-96.8809 492.503,-96.0347 492.503,-96.0347 492.503,-96.0347 497.431,-96.8809 491.742,-100.47 502.359,-97.7271 502.359,-97.7271"/>
</g>
<!-- User&#45;&gt;Recipient -->
<g id="edge20" class="edge"><title>User&#45;&gt;Recipient</title>
<path fill="none" stroke="black" d="M876.837,-1966.31C869.882,-1954.97 862.867,-1943.52 855.898,-1932.15"/>
<polyline fill="none" stroke="black" points="853.126,-1927.63 855.739,-1931.89 "/>
</g>
<!-- User&#45;&gt;SuperUser -->
<g id="edge26" class="edge"><title>User&#45;&gt;SuperUser</title>
<path fill="none" stroke="black" d="M1001.08,-1965.99C1016.41,-1850.05 1036.78,-1696.04 1052.25,-1579.03"/>
<polyline fill="none" stroke="black" points="1052.94,-1573.83 1052.28,-1578.79 "/>
</g>
<!-- Object -->
<g id="node16" class="node"><title>Object</title>
<ellipse fill="none" stroke="black" cx="261" cy="-2383" rx="36.1697" ry="18"/>
<text text-anchor="middle" x="261" y="-2377.4" font-family="Times,serif" font-size="14.00">Object</text>
</g>
<!-- Object&#45;&gt;Ability -->
<g id="edge1" class="edge"><title>Object&#45;&gt;Ability</title>
<path fill="none" stroke="black" d="M261,-2364.63C261,-2322.8 261,-2216.11 261,-2164.22"/>
<polyline fill="none" stroke="black" points="261,-2159.07 261,-2164.07 "/>
</g>
<!-- ActiveRecord::Base -->
<g id="node17" class="node"><title>ActiveRecord::Base</title>
<ellipse fill="none" stroke="black" cx="621" cy="-2383" rx="88.2033" ry="18"/>
<text text-anchor="middle" x="621" y="-2377.4" font-family="Times,serif" font-size="14.00">ActiveRecord::Base</text>
</g>
<!-- ActiveRecord::Base&#45;&gt;AdminProfile -->
<g id="edge5" class="edge"><title>ActiveRecord::Base&#45;&gt;AdminProfile</title>
<path fill="none" stroke="black" d="M707.751,-2379.43C841.02,-2373.78 1087.79,-2356.14 1155,-2302 1218.36,-2250.96 1230,-2216.36 1230,-2135 1230,-2135 1230,-2135 1230,-457 1230,-355.388 1210.38,-239.71 1195.01,-164.701"/>
<polyline fill="none" stroke="black" points="1193.92,-159.371 1194.92,-164.268 "/>
</g>
<!-- ActiveRecord::Base&#45;&gt;Crowdfund -->
<g id="edge7" class="edge"><title>ActiveRecord::Base&#45;&gt;Crowdfund</title>
<path fill="none" stroke="black" d="M554.571,-2371.07C509.758,-2360.49 452.225,-2340.19 415,-2302 359.948,-2245.53 355,-2213.87 355,-2135 355,-2135 355,-2135 355,-983 355,-824.265 385.625,-640.651 405.465,-538.355"/>
<polyline fill="none" stroke="black" points="406.46,-533.244 405.505,-538.152 "/>
</g>
<!-- ActiveRecord::Base&#45;&gt;DraftGrant -->
<g id="edge8" class="edge"><title>ActiveRecord::Base&#45;&gt;DraftGrant</title>
<path fill="none" stroke="black" d="M598.056,-2365.32C579.258,-2350.58 553.204,-2327.49 537,-2302 442.99,-2154.09 440.143,-2100.99 412,-1928 373.384,-1690.64 394.788,-1415.65 420.104,-1224.11"/>
<polyline fill="none" stroke="black" points="420.778,-1219.03 420.119,-1223.99 "/>
</g>
<!-- ActiveRecord::Base&#45;&gt;Grant -->
<g id="edge13" class="edge"><title>ActiveRecord::Base&#45;&gt;Grant</title>
<path fill="none" stroke="black" d="M621.147,-2364.84C622.133,-2250.11 627.822,-1587.78 630.946,-1224.08"/>
<polyline fill="none" stroke="black" points="630.99,-1219.01 630.947,-1224.01 "/>
</g>
<!-- ActiveRecord::Base&#45;&gt;Payment -->
<g id="edge14" class="edge"><title>ActiveRecord::Base&#45;&gt;Payment</title>
<path fill="none" stroke="black" d="M534.69,-2378.84C474.75,-2371.93 397.573,-2352.82 351,-2302 299.826,-2246.16 317,-2210.74 317,-2135 317,-2135 317,-2135 317,-457 317,-351.868 311.33,-321.927 344,-222 350.429,-202.335 359.863,-182.338 369.966,-163.919"/>
<polyline fill="none" stroke="black" points="372.547,-159.272 370.119,-163.643 "/>
</g>
<!-- ActiveRecord::Base&#45;&gt;Rate -->
<g id="edge16" class="edge"><title>ActiveRecord::Base&#45;&gt;Rate</title>
<path fill="none" stroke="black" d="M703.217,-2376.14C820.447,-2366.44 1028.29,-2343.83 1090,-2302 1161.99,-2253.2 1192,-2221.97 1192,-2135 1192,-2135 1192,-2135 1192,-720 1192,-600.728 1207.72,-282.77 1138,-186 1126.6,-170.183 1114.46,-178.443 1098,-168 1089.23,-162.439 1080.43,-156.135 1071.89,-149.546"/>
<polyline fill="none" stroke="black" points="1067.73,-146.29 1071.67,-149.368 "/>
</g>
<!-- ActiveRecord::Base&#45;&gt;RecipientProfile -->
<g id="edge21" class="edge"><title>ActiveRecord::Base&#45;&gt;RecipientProfile</title>
<path fill="none" stroke="black" d="M633.998,-2365.12C677.167,-2307.86 815.649,-2114.17 862,-1928 935.977,-1630.87 874.349,-1265.42 835.595,-1089.45"/>
<polyline fill="none" stroke="black" points="834.513,-1084.55 835.593,-1089.44 "/>
</g>
<!-- ActiveRecord::Base&#45;&gt;School -->
<g id="edge24" class="edge"><title>ActiveRecord::Base&#45;&gt;School</title>
<path fill="none" stroke="black" d="M616.777,-2364.98C613.865,-2353 609.995,-2336.56 607,-2322 569.962,-2141.89 533.994,-1927.6 517.065,-1823.7"/>
<polyline fill="none" stroke="black" points="516.224,-1818.53 517.028,-1823.47 "/>
</g>
<!-- ActiveRecord::Base&#45;&gt;User -->
<g id="edge28" class="edge"><title>ActiveRecord::Base&#45;&gt;User</title>
<path fill="none" stroke="black" d="M704.387,-2377C754.387,-2370.42 816.983,-2355.5 863,-2322 869.906,-2316.97 876.49,-2311.4 882.757,-2305.41"/>
<polyline fill="none" stroke="black" points="886.618,-2301.62 883.046,-2305.12 "/>
</g>
</g>
</svg>
