<?xml version="1.0" encoding="UTF-8" standalone="no"?>
<!DOCTYPE svg PUBLIC "-//W3C//DTD SVG 1.1//EN"
 "http://www.w3.org/Graphics/SVG/1.1/DTD/svg11.dtd">
<!-- Generated by graphviz version 2.34.0 (20131002.2312)
 -->
<!-- Title: models_diagram Pages: 1 -->
<svg width="757pt" height="310pt"
 viewBox="0.00 0.00 757.12 310.00" xmlns="http://www.w3.org/2000/svg" xmlns:xlink="http://www.w3.org/1999/xlink">
<g id="graph0" class="graph" transform="scale(1 1) rotate(0) translate(4 306)">
<title>models_diagram</title>
<polygon fill="white" stroke="white" points="-4,4 -4,-306 753.123,-306 753.123,4 -4,4"/>
<!-- _diagram_info -->
<g id="node1" class="node"><title>_diagram_info</title>
<text text-anchor="start" x="7.31226" y="-285" font-family="Times,serif" font-size="13.00">Models diagram</text>
<text text-anchor="start" x="7.31226" y="-269.4" font-family="Times,serif" font-size="13.00">Date: Oct 31 2013 &#45; 00:25</text>
<text text-anchor="start" x="7.31226" y="-253.8" font-family="Times,serif" font-size="13.00">Migration version: 20131025091558</text>
<text text-anchor="start" x="7.31226" y="-238.2" font-family="Times,serif" font-size="13.00">Generated by RailRoady 1.1.1</text>
<text text-anchor="start" x="7.31226" y="-222.6" font-family="Times,serif" font-size="13.00">http://railroady.prestonlee.com</text>
</g>
<!-- Ability -->
<g id="node2" class="node"><title>Ability</title>
<polygon fill="none" stroke="black" points="288.255,-180 233.745,-180 233.745,-144 288.255,-144 288.255,-180"/>
<text text-anchor="middle" x="261" y="-156.4" font-family="Times,serif" font-size="14.00">Ability</text>
</g>
<!-- Admin -->
<g id="node3" class="node"><title>Admin</title>
<ellipse fill="none" stroke="black" cx="383" cy="-90" rx="37.2949" ry="18"/>
<text text-anchor="middle" x="383" y="-84.4" font-family="Times,serif" font-size="14.00">Admin</text>
</g>
<!-- Crowdfund -->
<g id="node4" class="node"><title>Crowdfund</title>
<ellipse fill="none" stroke="black" cx="583" cy="-162" rx="55.0384" ry="18"/>
<text text-anchor="middle" x="583" y="-156.4" font-family="Times,serif" font-size="14.00">Crowdfund</text>
</g>
<!-- Payment -->
<g id="node7" class="node"><title>Payment</title>
<ellipse fill="none" stroke="black" cx="598" cy="-90" rx="44.2488" ry="18"/>
<text text-anchor="middle" x="598" y="-84.4" font-family="Times,serif" font-size="14.00">Payment</text>
</g>
<!-- Crowdfund&#45;&gt;Payment -->
<g id="edge3" class="edge"><title>Crowdfund&#45;&gt;Payment</title>
<path fill="none" stroke="#f9d47c" d="M588.434,-135.64C589.66,-129.92 590.966,-123.828 592.205,-118.042"/>
<ellipse fill="none" stroke="#f9d47c" cx="587.546" cy="-139.785" rx="4.00001" ry="4.00001"/>
<polygon fill="#f9d47c" stroke="#f9d47c" points="592.239,-117.882 598.735,-109.047 593.287,-112.993 594.335,-108.104 594.335,-108.104 594.335,-108.104 593.287,-112.993 589.935,-107.161 592.239,-117.882 592.239,-117.882"/>
</g>
<!-- DraftGrant -->
<g id="node5" class="node"><title>DraftGrant</title>
<ellipse fill="none" stroke="black" cx="487" cy="-18" rx="53.0988" ry="18"/>
<text text-anchor="middle" x="487" y="-12.4" font-family="Times,serif" font-size="14.00">DraftGrant</text>
</g>
<!-- Grant -->
<g id="node6" class="node"><title>Grant</title>
<ellipse fill="none" stroke="black" cx="699" cy="-18" rx="33.036" ry="18"/>
<text text-anchor="middle" x="699" y="-12.4" font-family="Times,serif" font-size="14.00">Grant</text>
</g>
<!-- Recipient -->
<g id="node8" class="node"><title>Recipient</title>
<ellipse fill="none" stroke="black" cx="487" cy="-90" rx="48.0634" ry="18"/>
<text text-anchor="middle" x="487" y="-84.4" font-family="Times,serif" font-size="14.00">Recipient</text>
</g>
<!-- Recipient&#45;&gt;DraftGrant -->
<g id="edge9" class="edge"><title>Recipient&#45;&gt;DraftGrant</title>
<path fill="none" stroke="#e6c1ab" d="M487,-63.6398C487,-58.0629 487,-52.1319 487,-46.4761"/>
<ellipse fill="none" stroke="#e6c1ab" cx="487" cy="-67.6966" rx="4" ry="4"/>
<polygon fill="#e6c1ab" stroke="#e6c1ab" points="487,-46.1043 491.5,-36.1043 487,-41.1043 487,-36.1043 487,-36.1043 487,-36.1043 487,-41.1043 482.5,-36.1044 487,-46.1043 487,-46.1043"/>
</g>
<!-- Recipient&#45;&gt;Grant -->
<g id="edge8" class="edge"><title>Recipient&#45;&gt;Grant</title>
<path fill="none" stroke="#16e2b8" d="M529.637,-74.9218C568.25,-62.1723 624.583,-43.5715 661.51,-31.3787"/>
<ellipse fill="none" stroke="#16e2b8" cx="525.806" cy="-76.1867" rx="4.00001" ry="4.00001"/>
<polygon fill="#16e2b8" stroke="#16e2b8" points="661.884,-31.2553 672.791,-32.3929 666.632,-29.6876 671.38,-28.1199 671.38,-28.1199 671.38,-28.1199 666.632,-29.6876 669.969,-23.8468 661.884,-31.2553 661.884,-31.2553"/>
</g>
<!-- School -->
<g id="node9" class="node"><title>School</title>
<ellipse fill="none" stroke="black" cx="699" cy="-90" rx="37.2949" ry="18"/>
<text text-anchor="middle" x="699" y="-84.4" font-family="Times,serif" font-size="14.00">School</text>
</g>
<!-- School&#45;&gt;DraftGrant -->
<g id="edge12" class="edge"><title>School&#45;&gt;DraftGrant</title>
<path fill="none" stroke="#fe1a79" d="M662.175,-75.841C658.406,-74.529 654.629,-73.2289 651,-72 611.831,-58.7376 567.156,-44.3482 534.336,-33.9139"/>
<ellipse fill="none" stroke="#fe1a79" cx="666.079" cy="-77.2088" rx="4.00001" ry="4.00001"/>
<polygon fill="#fe1a79" stroke="#fe1a79" points="534.082,-33.8333 525.912,-26.5191 529.316,-32.3208 524.55,-30.8083 524.55,-30.8083 524.55,-30.8083 529.316,-32.3208 523.189,-35.0975 534.082,-33.8333 534.082,-33.8333"/>
</g>
<!-- School&#45;&gt;Grant -->
<g id="edge11" class="edge"><title>School&#45;&gt;Grant</title>
<path fill="none" stroke="#57dc5b" d="M699,-63.6398C699,-58.0629 699,-52.1319 699,-46.4761"/>
<ellipse fill="none" stroke="#57dc5b" cx="699" cy="-67.6966" rx="4" ry="4"/>
<polygon fill="#57dc5b" stroke="#57dc5b" points="699,-46.1043 703.5,-36.1043 699,-41.1043 699,-36.1043 699,-36.1043 699,-36.1043 699,-41.1043 694.5,-36.1044 699,-46.1043 699,-46.1043"/>
</g>
<!-- User -->
<g id="node10" class="node"><title>User</title>
<ellipse fill="none" stroke="black" cx="481" cy="-162" rx="28.9087" ry="18"/>
<text text-anchor="middle" x="481" y="-156.4" font-family="Times,serif" font-size="14.00">User</text>
</g>
<!-- User&#45;&gt;Admin -->
<g id="edge2" class="edge"><title>User&#45;&gt;Admin</title>
<path fill="none" stroke="black" d="M462.567,-147.834C446.926,-136.661 424.367,-120.548 407.261,-108.329"/>
<polyline fill="none" stroke="black" points="403.037,-105.312 407.105,-108.218 "/>
</g>
<!-- User&#45;&gt;Payment -->
<g id="edge14" class="edge"><title>User&#45;&gt;Payment</title>
<path fill="none" stroke="#8ec41e" d="M508.126,-144.771C525.123,-134.602 547.137,-121.431 565.124,-110.669"/>
<ellipse fill="none" stroke="#8ec41e" cx="504.546" cy="-146.913" rx="4.00002" ry="4.00002"/>
<polygon fill="#8ec41e" stroke="#8ec41e" points="565.534,-110.424 576.425,-109.152 569.824,-107.857 574.115,-105.29 574.115,-105.29 574.115,-105.29 569.824,-107.857 571.805,-101.429 565.534,-110.424 565.534,-110.424"/>
</g>
<!-- User&#45;&gt;Recipient -->
<g id="edge10" class="edge"><title>User&#45;&gt;Recipient</title>
<path fill="none" stroke="black" d="M482.483,-143.697C483.275,-134.457 484.258,-122.984 485.105,-113.105"/>
<polyline fill="none" stroke="black" points="485.534,-108.104 485.107,-113.086 "/>
</g>
<!-- Object -->
<g id="node11" class="node"><title>Object</title>
<ellipse fill="none" stroke="black" cx="261" cy="-259" rx="36.1697" ry="18"/>
<text text-anchor="middle" x="261" y="-253.4" font-family="Times,serif" font-size="14.00">Object</text>
</g>
<!-- Object&#45;&gt;Ability -->
<g id="edge1" class="edge"><title>Object&#45;&gt;Ability</title>
<path fill="none" stroke="black" d="M261,-240.576C261,-225.041 261,-202.217 261,-185.345"/>
<polyline fill="none" stroke="black" points="261,-180.314 261,-185.314 "/>
</g>
<!-- ActiveRecord::Base -->
<g id="node12" class="node"><title>ActiveRecord::Base</title>
<ellipse fill="none" stroke="black" cx="625" cy="-259" rx="88.2033" ry="18"/>
<text text-anchor="middle" x="625" y="-253.4" font-family="Times,serif" font-size="14.00">ActiveRecord::Base</text>
</g>
<!-- ActiveRecord::Base&#45;&gt;Crowdfund -->
<g id="edge4" class="edge"><title>ActiveRecord::Base&#45;&gt;Crowdfund</title>
<path fill="none" stroke="black" d="M617.491,-241.016C610.503,-225.21 600.059,-201.587 592.496,-184.478"/>
<polyline fill="none" stroke="black" points="590.444,-179.837 592.466,-184.41 "/>
</g>
<!-- ActiveRecord::Base&#45;&gt;DraftGrant -->
<g id="edge5" class="edge"><title>ActiveRecord::Base&#45;&gt;DraftGrant</title>
<path fill="none" stroke="black" d="M560.902,-246.506C490.161,-229.888 380.433,-191.454 336,-108 328.481,-93.877 326.748,-85.0534 336,-72 357.198,-42.0934 396.656,-28.9357 429.921,-23.2065"/>
<polyline fill="none" stroke="black" points="435.203,-22.3493 430.267,-23.1503 "/>
</g>
<!-- ActiveRecord::Base&#45;&gt;Grant -->
<g id="edge6" class="edge"><title>ActiveRecord::Base&#45;&gt;Grant</title>
<path fill="none" stroke="black" d="M645.195,-241.166C673.876,-215.791 725.13,-164.645 745,-108 750.296,-92.9019 750.597,-86.9889 745,-72 740.077,-58.817 730.233,-46.7412 720.91,-37.4569"/>
<polyline fill="none" stroke="black" points="716.962,-33.6537 720.563,-37.1228 "/>
</g>
<!-- ActiveRecord::Base&#45;&gt;Payment -->
<g id="edge7" class="edge"><title>ActiveRecord::Base&#45;&gt;Payment</title>
<path fill="none" stroke="black" d="M634.075,-240.849C644.856,-218.059 659.858,-176.848 647,-144 641.838,-130.814 631.686,-118.942 621.955,-109.794"/>
<polyline fill="none" stroke="black" points="618.115,-106.298 621.812,-109.663 "/>
</g>
<!-- ActiveRecord::Base&#45;&gt;School -->
<g id="edge13" class="edge"><title>ActiveRecord::Base&#45;&gt;School</title>
<path fill="none" stroke="black" d="M633.797,-240.812C641.73,-225.114 653.565,-201.192 663,-180 673.1,-157.313 683.638,-130.887 690.683,-112.759"/>
<polyline fill="none" stroke="black" points="692.574,-107.876 690.768,-112.539 "/>
</g>
<!-- ActiveRecord::Base&#45;&gt;User -->
<g id="edge15" class="edge"><title>ActiveRecord::Base&#45;&gt;User</title>
<path fill="none" stroke="black" d="M600.246,-241.669C573.488,-224.016 531.144,-196.081 504.774,-178.685"/>
<polyline fill="none" stroke="black" points="500.364,-175.775 504.538,-178.529 "/>
</g>
</g>
</svg>
